<svg xml:space="preserve" style="enable-background:new 0 0 986.9 313.4;" viewBox="0 0 986.9 313.4" y="0px" x="0px" xmlns:xlink="http://www.w3.org/1999/xlink" xmlns="http://www.w3.org/2000/svg" id="Layer_1" version="1.1">
<style type="text/css">
	.st0{fill:#FFFFFF;}
	.st1{fill:#283A97;}
	.st2{fill:#07ABE8;}
	.st3{opacity:0.25;clip-path:url(#SVGID_00000031911413079979806310000016191276325035669897_);}
	.st4{opacity:0.25;clip-path:url(#SVGID_00000106827112942044178380000016057464658430636467_);}
	.st5{fill:#263997;}
</style>
<g>
	<circle r="64.3" cy="-668.1" cx="-146.4" class="st0"></circle>
	<g>
		<g>
			<path d="M-146.1-682.2c-0.7,0-1.2,0.1-1.8,0c-0.9-0.1-1.5-0.7-1.8-1.5s-0.1-1.4,0.5-2c0.3-0.3,0.6-0.6,1-0.3
				c0.4,0.4,0.2,0.7-0.1,1c-0.6,0.7-0.2,1.5,0.7,1.6c0.5,0.1,1,0,1.5,0c0-1.4,0-2.7,0-4.1c-0.8,0-1.5,0-2.2,0
				c-1.4-0.1-2.6-1.1-2.9-2.4c-0.2-1,0.3-2.3,1.2-2.8c0.2-0.1,0.6-0.1,0.7,0.1c0.1,0.1,0.1,0.5,0.1,0.8c0,0.1-0.1,0.1-0.2,0.2
				c-0.5,0.5-0.8,1.1-0.6,1.8c0.3,0.8,0.9,1.2,1.7,1.3c0.7,0.1,1.5,0,2.2,0c0-1.7,0-3.2,0-4.8c-0.9,0-1.8,0-2.8,0
				c-1.5,0-2.6-0.6-3.5-1.7c-1.4-1.7-1-4.1,0.7-5.3c0.2-0.1,0.6,0,0.9,0c0,0.3-0.1,0.6-0.1,0.9l-0.1,0.1c-0.8,0.8-1.4,1.7-0.9,2.8
				c0.5,1.2,1.4,1.9,2.8,2c1,0.1,2,0,3,0c0-4.6,0-9.1,0-13.6c-1.1-0.3-2.1-0.9-2.5-2.1c-0.2-0.7-0.3-1.5-0.2-2.2
				c0.3-1.6,1.8-2.6,3.5-2.6c1.6,0.1,2.9,1.2,3.2,2.7c0.4,1.9-0.5,3.1-2.8,4.2c0,4.5,0,9,0,13.5c0.7,0.2,1.5,0.4,2.2,0.6
				c0.5,0.2,1,0.4,1.5,0.6c2.2,1.1,2.8,3.2,1.4,5.3c-0.2,0.3-0.4,0.7-0.9,0.4c-0.4-0.3-0.3-0.6-0.1-1c0.2-0.3,0.3-0.7,0.5-1
				c0.3-0.8,0.1-1.5-0.6-2.1c-1.1-0.9-2.5-1.2-4-1.6c0,1.6,0,3.1,0,4.6c0,0.1,0.2,0.3,0.4,0.4c0.7,0.3,1.4,0.5,2.1,0.8
				c1.5,0.8,1.9,2.5,0.8,3.9c-0.1,0.2-0.5,0.2-0.8,0.3c-0.1-0.3-0.2-0.6-0.1-0.9c0.6-1.4,0.4-2-1-2.6c-0.4-0.2-0.8-0.3-1.4-0.5
				c0,1.3,0,2.6,0,3.9c0,0.1,0.2,0.3,0.4,0.4c0.3,0.2,0.7,0.3,1,0.5c1,0.6,1.3,1.8,0.6,2.8c-0.1,0.2-0.5,0.2-0.8,0.3
				c-0.1-0.3-0.3-0.6-0.2-0.8c0.3-1,0.2-1.3-1-1.5c0,0.8,0,1.6,0,2.4c0,0.4-0.1,0.8-0.6,0.8s-0.6-0.4-0.6-0.8
				C-146.1-680.4-146.1-681.3-146.1-682.2z M-143.3-711.6c0-1.2-1-2.2-2.3-2.3c-1.2,0-2.3,1-2.3,2.2c0,1.3,1,2.3,2.3,2.3
				C-144.3-709.4-143.3-710.4-143.3-711.6z" class="st1"></path>
			<path d="M-131.3-702.1c0.4,1,0.3,1.3-0.7,1.3c-0.7,0-1.4-0.2-2.1-0.3c-0.1,0.9-0.3,1.1-1.3,1
				c-0.8-0.1-1.6-0.3-2.4-0.5c-1.7-0.5-3.4-0.9-5.2-0.3c-0.5,0.2-0.8-0.1-0.8-0.6c0-1.8,0-3.5,0-5.3c0-0.2,0.2-0.5,0.3-0.7
				c1.5-1.5,3.3-1.9,5.2-1.1c1,0.5,2,1.1,3,1.6c0.8,0.4,1.5,0.9,2.3,1.3c1.1,0.6,2.3,0.9,3.6,0.8c0.2,0,0.6,0.1,0.7,0.2
				c0.1,0.2,0,0.6-0.1,0.8C-129.3-702.6-130.2-702.2-131.3-702.1z M-142.7-702.2c2.5-0.7,4.7,0.5,7,0.9c0-0.2-0.1-0.4-0.1-0.5
				c0.1-0.4,0.1-0.9,0.4-1.1c0.2-0.2,0.7,0.1,1.1,0.2c0.4,0.1,0.9,0.4,1.2,0.5c0-0.4-0.2-0.9-0.1-1.1c0.1-0.2,0.6-0.2,1-0.2
				c0.5,0,1,0,1.5,0.1c-1.2-0.5-2.4-0.9-3.5-1.5c-1-0.5-1.8-1.2-2.8-1.7c-0.8-0.4-1.6-0.8-2.4-1.1c-1.1-0.4-2.1,0-3,0.8
				c-0.1,0.1-0.2,0.3-0.2,0.5C-142.7-705-142.7-703.6-142.7-702.2z" class="st1"></path>
			<path d="M-156.9-701.1c-0.7,0.1-1.3,0.3-2,0.3c-1.1,0-1.3-0.3-0.9-1.4c-1.1,0-1.9-0.4-2.4-1.4
				c-0.1-0.3-0.2-0.7-0.1-0.9c0.1-0.2,0.5-0.3,0.8-0.2c1.2,0.1,2.3-0.2,3.3-0.8c1.1-0.6,2.2-1.4,3.4-2c1-0.5,2-1,3-1.4
				c1.7-0.5,3.2,0.2,4.4,1.4c0.2,0.2,0.2,0.5,0.2,0.7c0,1.7,0,3.4,0,5c0,0.7-0.3,0.9-0.9,0.7c-1.5-0.6-3-0.3-4.5,0.1
				c-1,0.3-2.1,0.6-3.1,0.7C-156.7-700-156.9-700.3-156.9-701.1z M-155.4-701.2c2.4-0.5,4.6-1.7,7.1-1c0-1.5,0-2.8,0-4.2
				c0-0.2-0.2-0.4-0.3-0.6c-1.1-0.9-2.3-1.1-3.6-0.5c-1,0.5-2,1.1-3,1.7c-1.2,0.7-2.5,1.3-3.7,1.9c-0.4,0.2-0.8,0.2-1.3,0.3
				c0,0.1,0,0.1,0,0.2c0.6-0.1,1.1-0.2,1.7-0.2c0.2,0,0.6,0.1,0.7,0.3c0.1,0.1,0,0.5-0.1,0.7c0,0.1-0.2,0.3-0.2,0.4l0.1,0.1
				c0.5-0.3,1-0.5,1.5-0.8c0.7-0.4,1.3-0.1,1.3,0.8C-155.3-701.8-155.4-701.6-155.4-701.2z" class="st1"></path>
			<path d="M-137.7-697.5c0,1.3-0.8,2.5-2,3c-0.4,0.2-0.8,0.2-1-0.2s0.1-0.7,0.4-0.8c0.8-0.4,1.3-0.9,1.4-1.8
				c0-0.9-0.4-1.4-1.1-1.8c-0.4-0.2-0.7-0.5-0.5-0.9c0.3-0.5,0.7-0.3,1-0.1C-138.3-699.7-137.7-698.6-137.7-697.5z" class="st1"></path>
			<path d="M-147.8-680.5c0.3,0.1,0.5,0.2,0.6,0.3c0.2,0.2,0.5,0.4,0.5,0.6c0,0.2-0.3,0.5-0.5,0.5
				c-0.5-0.1-1-0.2-1.3-0.5c-0.4-0.4-0.5-1-0.1-1.5c0.3-0.3,0.8-0.5,1.2-0.7c0.1,0,0.4,0.2,0.5,0.4c0,0.2-0.1,0.4-0.2,0.6
				C-147.3-680.8-147.5-680.7-147.8-680.5z" class="st1"></path>
		</g>
		<g>
			<path d="M-146.4-675.5c0.1,11.4,0.1,22.7,0.2,34.1c0,1.8-0.7,2.9-2.3,3.9c-7.9,5-15.8,10.1-23.7,15.1
				c-3.6,2.3-4.7,1.6-4.8-2.7c-0.2-8.6-0.4-17.3-0.6-25.9c-0.1-2.8,0.6-5.1,3.1-6.7C-165.2-663.6-155.8-669.6-146.4-675.5z" class="st1"></path>
			<path d="M-146.4-675.5c-9.4,5.9-18.7,11.9-28.1,17.8c-2.7-2.9-6.4-4.5-9.7-6.7c-2.2-1.4-3.3-3.1-3.2-5.8
				c0.1-8.8,0.1-17.6,0.2-26.3c0.1-4.3,2-5.3,5.6-3c10.5,6.7,21.1,13.4,31.6,20.1C-148.5-678.4-146.5-677.8-146.4-675.5z" class="st2"></path>
		</g>
		<g>
			<path d="M-144.7-675.5c-0.1,11.4-0.1,22.7-0.2,34.1c0,1.8,0.7,2.9,2.3,3.9c7.9,5,15.8,10.1,23.7,15.1
				c3.6,2.3,4.7,1.6,4.8-2.7c0.2-8.6,0.4-17.3,0.6-25.9c0.1-2.8-0.6-5.1-3.1-6.7C-125.9-663.6-135.3-669.6-144.7-675.5z" class="st1"></path>
			<path d="M-144.7-675.5c9.4,5.9,18.7,11.9,28.1,17.8c2.7-2.9,6.4-4.5,9.7-6.7c2.2-1.4,3.3-3.1,3.2-5.8
				c-0.1-8.8-0.1-17.6-0.2-26.3c-0.1-4.3-2-5.3-5.6-3c-10.5,6.7-21.1,13.4-31.6,20.1C-142.6-678.4-144.6-677.8-144.7-675.5z" class="st2"></path>
		</g>
	</g>
	<path d="M-146.4-675.5c0.1,11.4,0.1,22.7,0.2,34.1c0,1.8-0.7,2.9-2.3,3.9c-7.9,5-15.8,10.1-23.7,15.1
		c-3.6,2.3-4.7,1.6-4.8-2.7c-0.2-8.6-0.4-17.3-0.6-25.9c-0.1-2.8,0.6-5.1,3.1-6.7C-165.2-663.6-155.8-669.6-146.4-675.5z" class="st1"></path>
	<path d="M-144.7-675.5c-0.1,11.4-0.1,22.7-0.2,34.1c0,1.8,0.7,2.9,2.3,3.9c7.9,5,15.8,10.1,23.7,15.1
		c3.6,2.3,4.7,1.6,4.8-2.7c0.2-8.6,0.4-17.3,0.6-25.9c0.1-2.8-0.6-5.1-3.1-6.7C-125.9-663.6-135.3-669.6-144.7-675.5z" class="st1"></path>
	<g>
		<g>
			<g>
				<defs>
					<path d="M-181.8-624.9l6,3.8c0,0,1.4,0.3,3.5-1.3c2.5-1.6,23.8-15.1,23.8-15.1s1.3-0.7,2.1-2.1
						c0-1,0.2-1.5,0.2-1.5l-0.2-34.4h1.7l-0.2,34.6c0,0-0.1,1,1.1,2.4c0.2,0.2,0.8,0.7,0.8,0.7l24.1,15.3c0,0,2,1.2,2.9,1.3
						c0.6-0.1,1.2-0.1,1.6-1.4c0,0,5.5-3.2,5.7-3.4c0.2-0.1,5.9-28.9,5.9-28.9s-7.5-16.9-7.7-17.5s-31.1-6.2-31.8-6.8
						s-31.4,5.4-31.6,5.7c-0.2,0.3-15.3,12.7-15.7,13.4c-0.4,0.8-3.4,18.7-2.9,20s5.1,8.6,5.1,8.6" id="SVGID_1_"></path>
				</defs>
				<clipPath id="SVGID_00000135667576634243099120000004594034527727061146_">
					<use style="overflow:visible;" xlink:href="#SVGID_1_"></use>
				</clipPath>
				<g style="opacity:0.25;clip-path:url(#SVGID_00000135667576634243099120000004594034527727061146_);">
					<path d="M-165.9-656.5c-0.2,0-0.4-0.2-0.4-0.4s0.2-0.4,0.4-0.4s0.4,0.2,0.4,0.4S-165.6-656.5-165.9-656.5
						 M-161-659.7c-0.3,0-0.5,0.2-0.5,0.5c0,0.1,0,0.2,0.1,0.3l-2.9,2.9v5.5l-1.6,1.6v-7.2c0.3,0,0.5-0.3,0.5-0.6s-0.3-0.6-0.6-0.6
						s-0.6,0.3-0.6,0.6s0.2,0.5,0.5,0.6v5.2l-2.1-2.1v-5c0.2,0,0.4-0.2,0.4-0.5s-0.2-0.5-0.5-0.5s-0.5,0.2-0.5,0.5
						c0,0.2,0.2,0.4,0.4,0.5v5l2.2,2.2v4.3l1.9,1.9v5l-1.5-1.5v-2.6l-2.8-2.8v-3.7c0.2,0,0.4-0.2,0.4-0.5s-0.2-0.5-0.5-0.5
						s-0.5,0.2-0.5,0.5c0,0.2,0.2,0.4,0.4,0.5v3.6l-1.6-1.6v-1.9l-1.4-1.4v-3.4c0.2,0,0.4-0.2,0.4-0.5s-0.2-0.5-0.5-0.5
						s-0.5,0.2-0.5,0.5c0,0.2,0.2,0.4,0.4,0.5v3.5l1.4,1.4v1.7l-4.5-4.5c0.1-0.1,0.1-0.2,0.1-0.3c0-0.3-0.2-0.5-0.5-0.5
						s-0.5,0.2-0.5,0.5s0.2,0.5,0.5,0.5c0.1,0,0.2,0,0.3-0.1l3.5,3.5h-2.9l-1.3-1.3c0.1-0.1,0.1-0.2,0.1-0.3c0-0.3-0.2-0.5-0.5-0.5
						s-0.5,0.2-0.5,0.5s0.2,0.5,0.5,0.5c0.1,0,0.2,0,0.3-0.1l1.3,1.3l-1.3,1.3c-0.1-0.1-0.2-0.1-0.3-0.1c-0.3,0-0.5,0.2-0.5,0.5
						s0.2,0.5,0.5,0.5s0.5-0.2,0.5-0.5c0-0.1,0-0.2-0.1-0.3l1.3-1.3h3l5.6,5.6v2.4l-2.1-2.1c0.1-0.1,0.1-0.2,0.1-0.3
						c0-0.3-0.2-0.5-0.5-0.5s-0.5,0.2-0.5,0.5s0.2,0.5,0.5,0.5c0.1,0,0.2,0,0.3-0.1l2.2,2.2l5.3,5.3v3.2l12.2,12.2v23.5h0.2v-23.5
						l-12.2-12.2v-3l1.2-1.2v-4.2l1.2-1.2v-2.1c0.2,0,0.4-0.2,0.4-0.5s-0.2-0.5-0.5-0.5s-0.5,0.2-0.5,0.5c0,0.2,0.2,0.4,0.4,0.5v2
						l-1.1,1.1l-0.9-0.9v-2.2c0.2,0,0.4-0.2,0.4-0.5s-0.2-0.5-0.5-0.5s-0.5,0.2-0.5,0.5c0,0.2,0.2,0.4,0.4,0.5v2.3l1,1v4.1l-1.1,1.1
						l-3.6-3.6v-5.1l1.4-1.4v-5.6c0.2,0,0.4-0.2,0.4-0.5s-0.2-0.5-0.5-0.5s-0.5,0.2-0.5,0.5c0,0.2,0.2,0.4,0.4,0.5v5.5l-1.3,1.3
						l-1.9-1.9v-2.2l1.7-1.7v-5.5l2.8-2.8c0.1,0.1,0.2,0.1,0.3,0.1c0.3,0,0.5-0.2,0.5-0.5C-160.5-659.5-160.7-659.7-161-659.7" class="st0"></path>
					<path d="M-170.9-644.5c-0.2,0-0.4-0.2-0.4-0.4s0.2-0.4,0.4-0.4s0.4,0.2,0.4,0.4
						C-170.5-644.6-170.6-644.5-170.9-644.5 M-170.9-645.4c-0.3,0-0.6,0.3-0.6,0.6s0.2,0.5,0.5,0.6v0.9l1.6,1.6v2.7h-1.6l-1.6-1.6
						c0.1-0.1,0.1-0.2,0.1-0.3c0-0.3-0.2-0.5-0.5-0.5s-0.5,0.2-0.5,0.5s0.2,0.5,0.5,0.5c0.1,0,0.2,0,0.3-0.1l1.7,1.7h1.8l3.5,3.5
						h-2.2l-1.2-1.2c0.1-0.1,0.1-0.2,0.1-0.3c0-0.3-0.2-0.5-0.5-0.5s-0.5,0.2-0.5,0.5s0.2,0.5,0.5,0.5c0.1,0,0.2,0,0.3-0.1l1.3,1.3
						h2.4l1.9,1.9h2.1l13.2,13.2v23.2h0.2v-23.3l-13.3-13.3h-2.1l-5.5-5.5v-2.9l-1.6-1.6v-0.8c0.3,0,0.5-0.3,0.5-0.6
						C-170.3-645.2-170.5-645.4-170.9-645.4" class="st0"></path>
					<path d="M-171-631.4c-0.3,0-0.5,0.2-0.5,0.5s0.2,0.5,0.5,0.5c0.2,0,0.4-0.2,0.5-0.4h7l-1,1h-8.4
						c0-0.2-0.2-0.4-0.5-0.4s-0.5,0.2-0.5,0.5s0.2,0.5,0.5,0.5c0.2,0,0.4-0.2,0.5-0.4h8.5l1.1-1.1l1.7,1.7h-9.8l-0.9,0.9
						c-0.1-0.1-0.2-0.1-0.3-0.1c-0.3,0-0.5,0.2-0.5,0.5s0.2,0.5,0.5,0.5s0.5-0.2,0.5-0.5c0-0.1,0-0.2-0.1-0.3l0.8-0.8h9.9l1.1,1.1
						h3.7l7.9,7.9v23h0.2V-620l-8-8h-3.7l-3-3h-7.2C-170.6-631.3-170.8-631.4-171-631.4" class="st0"></path>
					<path d="M-169.7-627.5c-0.3,0-0.5,0.2-0.5,0.5s0.2,0.5,0.5,0.5c0.1,0,0.2,0,0.3-0.1l2,2h7.1l-1.6,1.6h-4.7
						c0-0.2-0.2-0.4-0.5-0.4s-0.5,0.2-0.5,0.5s0.2,0.5,0.5,0.5c0.2,0,0.4-0.2,0.5-0.4h4.8l1.8-1.8h6.1l4.9,4.9v22.8h0.2v-22.8l-5-5
						h-3.4l-1.8-1.8h-5.7c0-0.2-0.2-0.4-0.5-0.4s-0.5,0.2-0.5,0.5s0.2,0.5,0.5,0.5c0.2,0,0.4-0.2,0.5-0.4h5.7l1.6,1.6h-9.7l-2-2
						c0.1-0.1,0.1-0.2,0.1-0.3C-169.2-627.3-169.4-627.5-169.7-627.5" class="st0"></path>
					<path d="M-174.3-622.8c-0.1,0-0.1,0-0.2,0l-0.2-0.2c-0.1-0.1-0.1-0.3,0-0.4c0.1-0.1,0.2-0.2,0.3-0.2h0.2l0.2,0.2
						c0.1,0.1,0.1,0.3,0,0.4C-174-622.9-174.2-622.8-174.3-622.8 M-174.3-623.8c-0.2,0-0.4,0.1-0.5,0.3s-0.1,0.4,0,0.6
						c0.1,0.1,0.1,0.2,0.3,0.3c0.1,0,0.2,0.1,0.3,0.1s0.2,0,0.3-0.1l0.8,0.8h9.5l0.5,0.5l-1.5,1.5h-5.7l-0.8,0.8
						c-0.1-0.1-0.2-0.1-0.3-0.1c-0.3,0-0.5,0.2-0.5,0.5s0.2,0.5,0.5,0.5s0.5-0.2,0.5-0.5c0-0.1,0-0.2-0.1-0.3l0.8-0.8h3.6l-1.2,1.2
						c-0.1-0.1-0.2-0.1-0.3-0.1c-0.3,0-0.5,0.2-0.5,0.5s0.2,0.5,0.5,0.5s0.5-0.2,0.5-0.5c0-0.1,0-0.2-0.1-0.3l1.3-1.3h1.9l1.6-1.6h8
						l-2.5,2.5h-2.8c0-0.2-0.2-0.4-0.5-0.4s-0.5,0.2-0.5,0.5s0.2,0.5,0.5,0.5c0.2,0,0.4-0.2,0.5-0.4h2.9l2.6-2.6h3.4l1.9,1.9v22.5
						h0.2v-22.6l-2.1-2.1h-5.1l-1.3-1.3c0.1-0.1,0.1-0.2,0.1-0.3c0-0.3-0.2-0.5-0.5-0.5s-0.5,0.2-0.5,0.5s0.2,0.5,0.5,0.5
						c0.1,0,0.2,0,0.3-0.1l1.2,1.2h-6.4l-0.6-0.6h-9.5l-0.7-0.7l0,0c0.1-0.2,0.1-0.4,0-0.6c-0.1-0.1-0.1-0.2-0.3-0.3
						C-174.1-623.8-174.2-623.8-174.3-623.8" class="st0"></path>
					<path d="M-114.8-650.3c-0.3,0-0.5,0.2-0.5,0.5c0,0.1,0,0.2,0.1,0.3l-3.4,3.4l0,0l0,0l-2,2v-2
						c0.2,0,0.4-0.2,0.4-0.5s-0.2-0.5-0.5-0.5s-0.5,0.2-0.5,0.5c0,0.2,0.2,0.4,0.4,0.5v2.2l-3,3v1.7l-1.6-1.6
						c0.1-0.1,0.1-0.2,0.1-0.3c0-0.3-0.2-0.5-0.5-0.5s-0.5,0.2-0.5,0.5s0.2,0.5,0.5,0.5c0.1,0,0.2,0,0.3-0.1l1.7,1.7v2.1l-5.3,5.3
						v3.2l-12.2,12.2v19.3h0.2v-19.2l12.2-12.2v-3.2l5.3-5.3l2.8-2.8c0.1,0.1,0.2,0.1,0.3,0.1c0.3,0,0.5-0.2,0.5-0.5
						s-0.2-0.5-0.5-0.5s-0.5,0.2-0.5,0.5c0,0.1,0,0.2,0.1,0.3l-2.6,2.6v-3.8l1.7-1.7h4.5l0.5-0.5c0.1,0.1,0.2,0.1,0.3,0.1
						c0.3,0,0.5-0.2,0.5-0.5s-0.2-0.5-0.5-0.5s-0.5,0.2-0.5,0.5c0,0.1,0,0.2,0.1,0.3l-0.5,0.5h-4.3l3.2-3.2h2.5l1.2-1.2
						c0.1,0.1,0.2,0.1,0.3,0.1c0.3,0,0.5-0.2,0.5-0.5s-0.2-0.5-0.5-0.5s-0.5,0.2-0.5,0.5c0,0.1,0,0.2,0.1,0.3l-1.1,1.1h-2.3l3.3-3.3
						c0.1,0.1,0.2,0.1,0.3,0.1c0.3,0,0.5-0.2,0.5-0.5C-114.3-650-114.5-650.3-114.8-650.3" class="st0"></path>
					<path d="M-110.9-632.1c-0.3,0-0.5,0.2-0.5,0.5c0,0.1,0,0.2,0.1,0.3l-1.5,1.5h-5.2l0,0h-2.2l1.3-1.3h3.9
						c0,0.2,0.2,0.4,0.5,0.4s0.5-0.2,0.5-0.5s-0.2-0.5-0.5-0.5c-0.2,0-0.4,0.2-0.5,0.4h-4l-1.5,1.5h-2.3l-3,3h-3.7l-11.1,11.1v18.8
						h0.2v-18.7l11-11h3.7l3-3h2.3l0,0h2.4l1.5,1.5c-0.1,0.1-0.1,0.2-0.1,0.3c0,0.3,0.2,0.5,0.5,0.5s0.5-0.2,0.5-0.5
						s-0.2-0.5-0.5-0.5c-0.1,0-0.2,0-0.3,0.1l-1.4-1.4h5.1l1.6-1.6c0.1,0.1,0.2,0.1,0.3,0.1c0.3,0,0.5-0.2,0.5-0.5
						C-110.4-631.9-110.7-632.1-110.9-632.1" class="st0"></path>
					<path d="M-111.4-628.1c-0.2,0-0.4-0.2-0.4-0.4s0.2-0.4,0.4-0.4s0.4,0.2,0.4,0.4S-111.2-628.1-111.4-628.1
						 M-111.4-629.1c-0.3,0-0.6,0.3-0.6,0.6c0,0.1,0,0.2,0.1,0.3l-1.6,1.6h-9.5l-2.4,2.4h-6.3l-8.7,8.7v18.5h0.2v-18.5l8.6-8.6h6.3
						l2.3-2.3l1.7,1.7h3.5c0,0.2,0.2,0.4,0.5,0.4s0.5-0.2,0.5-0.5s-0.2-0.5-0.5-0.5c-0.2,0-0.4,0.2-0.5,0.4h-3.4l-1.5-1.5h9.3
						l1.5,1.5c-0.1,0.1-0.1,0.2-0.1,0.3c0,0.3,0.2,0.5,0.5,0.5s0.5-0.2,0.5-0.5s-0.2-0.5-0.5-0.5c-0.1,0-0.2,0-0.3,0.1l-1.4-1.4
						l1.6-1.6c0.1,0.1,0.2,0.1,0.3,0.1c0.3,0,0.6-0.3,0.6-0.6C-110.8-628.8-111.1-629.1-111.4-629.1" class="st0"></path>
					<path d="M-151.4-653.9c-0.2,0-0.4-0.2-0.4-0.4s0.2-0.4,0.4-0.4s0.4,0.2,0.4,0.4S-151.2-653.9-151.4-653.9
						 M-151.1-664.9c-0.3,0-0.5,0.2-0.5,0.5c0,0.2,0.2,0.4,0.4,0.5v5.2l-1.5,1.5v-3.7c0.2,0,0.4-0.2,0.4-0.5s-0.2-0.5-0.5-0.5
						s-0.5,0.2-0.5,0.5c0,0.2,0.2,0.4,0.4,0.5v10.6l1.4,1.4v5.7l1.6,1.6v6.8l3.4,3.4v34.7h0.2v-34.8l-3.4-3.4v-6.8l-1.5-1.5l1.2-1.2
						v-2.4c0.2,0,0.4-0.2,0.4-0.5s-0.2-0.5-0.5-0.5s-0.5,0.2-0.5,0.5c0,0.2,0.2,0.4,0.4,0.5v2.3l-1.1,1.1v-10.1
						c0.3,0,0.5-0.3,0.5-0.6s-0.3-0.6-0.6-0.6s-0.6,0.3-0.6,0.6s0.2,0.5,0.5,0.6v4.4l-1.2-1.2v-6.6l1.6-1.6v-5.2
						c0.2,0,0.4-0.2,0.4-0.5C-150.6-664.7-150.9-664.9-151.1-664.9" class="st0"></path>
					<path d="M-144-657.5c-0.2,0-0.4-0.2-0.4-0.4s0.2-0.4,0.4-0.4s0.4,0.2,0.4,0.4C-143.5-657.7-143.7-657.5-144-657.5
						 M-148-670.5c-0.3,0-0.5,0.2-0.5,0.5c0,0.2,0.2,0.4,0.4,0.5v6l-1.5,1.5v-4l-1.6-1.6c0.1-0.1,0.1-0.2,0.1-0.3
						c0-0.3-0.2-0.5-0.5-0.5s-0.5,0.2-0.5,0.5s0.2,0.5,0.5,0.5c0.1,0,0.2,0,0.3-0.1l1.5,1.5v4.1l0,0v4.3l0,0l0,0v5.7l1.3,1.3v7.6
						l1,1v7.5l1.2,1.2v36.4h0.2v-36.4l-1.2-1.2v-7.5l2.8-2.8v-2.9l-1.3-1.3v-2.8c0.2,0,0.4-0.2,0.4-0.5s-0.2-0.5-0.5-0.5
						s-0.5,0.2-0.5,0.5c0,0.2,0.2,0.4,0.4,0.5v2.8l1.3,1.3v2.7l-2.7,2.7l-0.9-0.9v-7.5l0.8-0.8v-3l3.1-3.1c0.1,0.1,0.2,0.1,0.3,0.1
						c0.3,0,0.6-0.3,0.6-0.6s-0.3-0.6-0.6-0.6s-0.6,0.3-0.6,0.6c0,0.1,0,0.2,0.1,0.3l-3.1,3.1v3l-0.8,0.8l-1.2-1.2v-5.6l3-3
						c0.1,0.1,0.2,0.1,0.3,0.1c0.3,0,0.5-0.2,0.5-0.5s-0.2-0.5-0.5-0.5s-0.5,0.2-0.5,0.5c0,0.1,0,0.2,0.1,0.3l-2.8,2.8v-4.1l1.7-1.7
						v-6.1c0.2,0,0.4-0.2,0.4-0.5C-147.5-670.3-147.7-670.5-148-670.5" class="st0"></path>
					<path d="M-145.1-642.8c-0.3,0-0.5,0.2-0.5,0.5s0.2,0.5,0.5,0.5c0.1,0,0.2,0,0.3-0.1l1.2,1.2v5.3l-1,1v-4.1
						l-1.4-1.4c0.1-0.1,0.1-0.2,0.1-0.3c0-0.3-0.2-0.5-0.5-0.5s-0.5,0.2-0.5,0.5s0.2,0.5,0.5,0.5c0.1,0,0.2,0,0.3-0.1l1.4,1.4v4.1
						l-1.4-1.4c0.1-0.1,0.1-0.2,0.1-0.3c0-0.3-0.2-0.5-0.5-0.5s-0.5,0.2-0.5,0.5s0.2,0.5,0.5,0.5c0.1,0,0.2,0,0.3-0.1l1.6,1.6v6.3
						l-1.2,1.2v29.5h0.2v-29.5l1.2-1.2v-3.1l0.7-0.7c0.1,0.1,0.2,0.1,0.3,0.1c0.3,0,0.5-0.2,0.5-0.5s-0.2-0.5-0.5-0.5
						s-0.5,0.2-0.5,0.5c0,0.1,0,0.2,0.1,0.3l-0.5,0.5v-2.9v-0.2l1.2-1.2v-5.5l-1.3-1.3c0.1-0.1,0.1-0.2,0.1-0.3
						C-144.6-642.6-144.8-642.8-145.1-642.8" class="st0"></path>
					<path d="M-140.3-656.9c-0.3,0-0.5,0.2-0.5,0.5c0,0.2,0.2,0.4,0.4,0.5v1.1l1.1,1.1v7.3l-1.5,1.5v-1.3l-1.7-1.7v-0.4
						l1.4-1.4v-2.7c0.2,0,0.4-0.2,0.4-0.5s-0.2-0.5-0.5-0.5s-0.5,0.2-0.5,0.5c0,0.2,0.2,0.4,0.4,0.5v2.6l-1.3,1.3v-7.4
						c0.2,0,0.4-0.2,0.4-0.5s-0.2-0.5-0.5-0.5s-0.5,0.2-0.5,0.5c0,0.2,0.2,0.4,0.4,0.5v8.1l1.7,1.7v4.1l-1,1v9.4l-1.3,1.3v3.2
						l-1.2,1.2v2.2l-1.1,1.1v25.5h0.2v-25.4l1.1-1.1v-2.2l1.2-1.2v-3.2l1.3-1.3v-9.4l1-1v-2.7l1.7-1.7v-7.4l-1.1-1.1v-1
						c0.2,0,0.4-0.2,0.4-0.5C-139.8-656.6-140.1-656.9-140.3-656.9" class="st0"></path>
					<path d="M-135.7-654c-0.2,0-0.4-0.2-0.4-0.4s0.2-0.4,0.4-0.4s0.4,0.2,0.4,0.4S-135.5-654-135.7-654 M-135.5-669.3
						c-0.3,0-0.5,0.2-0.5,0.5c0,0.2,0.2,0.4,0.4,0.5v5.7l-1.9-1.9v-2.2c0.2,0,0.4-0.2,0.4-0.5s-0.2-0.5-0.5-0.5s-0.5,0.2-0.5,0.5
						c0,0.2,0.2,0.4,0.4,0.5v2.3l2.1,2.1v4.4l2.4,2.4v5.5l-2.5,2.5v3.4l-1.1,1.1v-6.7l1.2-1.2v-2.9c0.3,0,0.5-0.3,0.5-0.6
						s-0.3-0.6-0.6-0.6s-0.6,0.3-0.6,0.6s0.2,0.5,0.5,0.6v2.8l-1.1,1.1l-1.3-1.3v-8.3c0.2,0,0.4-0.2,0.4-0.5s-0.2-0.5-0.5-0.5
						s-0.5,0.2-0.5,0.5c0,0.2,0.2,0.4,0.4,0.5v8.4l1.4,1.4v15l-2.1,2.1v8l-2.1,2.1v3.9l-1.9,1.9v19.8h0.2v-19.7l1.9-1.9v-3.9
						l2.1-2.1v-8l2.1-2.1v-8.1l1.3-1.3v-3.4l2.5-2.5v-5.6l0,0v-4.8l1.7-1.7c0.1,0.1,0.2,0.1,0.3,0.1c0.3,0,0.5-0.2,0.5-0.5
						s-0.2-0.5-0.5-0.5s-0.5,0.2-0.5,0.5c0,0.1,0,0.2,0.1,0.3l-1.8,1.8v4.7l-2.2-2.2v-10.3c0.2,0,0.4-0.2,0.4-0.5
						C-135-669-135.2-669.3-135.5-669.3" class="st0"></path>
					<path d="M-134.1-647.6c-0.3,0-0.5,0.2-0.5,0.5c0,0.2,0.2,0.4,0.4,0.5v2.8l1.6,1.6l-2.3,2.3v9l-2.6,2.6v6.6
						l-5.4,5.4v19.5h0.2v-19.4l5.4-5.4v-6.6l2.6-2.6v-4.9l1.4-1.4v-1.7c0.2,0,0.4-0.2,0.4-0.5s-0.2-0.5-0.5-0.5s-0.5,0.2-0.5,0.5
						c0,0.2,0.2,0.4,0.4,0.5v1.7l-1.2,1.2v-3.9l2.3-2.3v-2.1c0.2,0,0.4-0.2,0.4-0.5s-0.2-0.5-0.5-0.5s-0.5,0.2-0.5,0.5
						c0,0.2,0.2,0.4,0.4,0.5v1.8l-1.4-1.4v-2.7c0.2,0,0.4-0.2,0.4-0.5C-133.6-647.4-133.8-647.6-134.1-647.6" class="st0"></path>
					<path d="M-127-664c-0.3,0-0.5,0.2-0.5,0.5c0,0.2,0.2,0.4,0.4,0.5v6l-2.9-2.9c0.1-0.1,0.1-0.2,0.1-0.3
						c0-0.3-0.2-0.5-0.5-0.5s-0.5,0.2-0.5,0.5s0.2,0.5,0.5,0.5c0.1,0,0.2,0,0.3-0.1l3.1,3.1v3.5l-1.1,1.1l-2.5-2.5
						c0.1-0.1,0.1-0.2,0.1-0.3c0-0.3-0.2-0.5-0.5-0.5s-0.5,0.2-0.5,0.5s0.2,0.5,0.5,0.5c0.1,0,0.2,0,0.3-0.1l2.5,2.5v3.5l-2.1,2.1
						l-1.3-1.3v-2.6c0.2,0,0.4-0.2,0.4-0.5s-0.2-0.5-0.5-0.5s-0.5,0.2-0.5,0.5c0,0.2,0.2,0.4,0.4,0.5v2.6l1.4,1.4v11.4l-2.6,2.6v3.9
						l-2.4,2.4v2.5l-7.1,7.1v19.3h0.2v-19.2l7.1-7.1v-2.5l2.4-2.4v-3.9l2.6-2.6v-11.5l2.2-2.2v-3.6l1.2-1.2v-9.8
						c0.2,0,0.4-0.2,0.4-0.5C-126.5-663.8-126.7-664-127-664" class="st0"></path>
					<path d="M-129.1-642.5c-0.2,0-0.4-0.2-0.4-0.4s0.2-0.4,0.4-0.4s0.4,0.2,0.4,0.4
						C-128.7-642.7-128.8-642.5-129.1-642.5 M-116.4-652.4c-0.2,0-0.4-0.2-0.4-0.4s0.2-0.4,0.4-0.4c0.2,0,0.4,0.2,0.4,0.4
						C-116-652.6-116.1-652.4-116.4-652.4 M-124.6-661.4c-0.3,0-0.5,0.2-0.5,0.5c0,0.1,0,0.2,0.1,0.3l-1,1v13.9l-1.6,1.6v2.5l0,0
						v4.1l-1.5-1.5v-3.2c0.3,0,0.5-0.3,0.5-0.6s-0.3-0.6-0.6-0.6s-0.6,0.3-0.6,0.6s0.2,0.5,0.5,0.6v3.3l1.6,1.6v2.2l-4.5,4.5v4.5
						l-10.3,10.3v19h0.2v-19l10.3-10.3v-4.5l4.5-4.5v-6.6l9.1-9.1l0,0l0,0l1.5-1.5c0.1,0.1,0.2,0.1,0.3,0.1c0.3,0,0.6-0.3,0.6-0.6
						s-0.3-0.6-0.6-0.6c-0.3,0-0.6,0.3-0.6,0.6c0,0.1,0,0.2,0.1,0.3l-1.4,1.4v-4.7c0.2,0,0.4-0.2,0.4-0.5s-0.2-0.5-0.5-0.5
						s-0.5,0.2-0.5,0.5c0,0.2,0.2,0.4,0.4,0.5v4.8l-2.4,2.4v-3.7c0.2,0,0.4-0.2,0.4-0.5s-0.2-0.5-0.5-0.5s-0.5,0.2-0.5,0.5
						c0,0.2,0.2,0.4,0.4,0.5v3.9l-1.9,1.9l-1.5-1.5v-3.9c0.2,0,0.4-0.2,0.4-0.5s-0.2-0.5-0.5-0.5s-0.5,0.2-0.5,0.5
						c0,0.2,0.2,0.4,0.4,0.5v4l1.5,1.5l-4.3,4.3v-2.2l1.6-1.6v-13.9l0.9-0.9c0.1,0.1,0.2,0.1,0.3,0.1c0.3,0,0.5-0.2,0.5-0.5
						C-124.1-661.2-124.3-661.4-124.6-661.4" class="st0"></path>
					<path d="M-140.1-640.5c-0.2,0-0.4-0.2-0.4-0.4s0.2-0.4,0.4-0.4s0.4,0.2,0.4,0.4
						C-139.7-640.6-139.9-640.5-140.1-640.5 M-138.7-644.4c-0.3,0-0.5,0.2-0.5,0.5c0,0.2,0.2,0.4,0.4,0.5v6l-1.2-1.2v-1.7
						c0.3,0,0.5-0.3,0.5-0.6s-0.3-0.6-0.6-0.6s-0.6,0.3-0.6,0.6s0.2,0.5,0.5,0.6v1.8l1.4,1.4l-2.3,2.3v7.1l-2.2,2.2v6.2l-1.2,1.2
						v21.2h0.2V-618l1.2-1.2v-6.2l2.2-2.2v-7.1l2.4-2.4v-6.3c0.2,0,0.4-0.2,0.4-0.5C-138.2-644.2-138.5-644.4-138.7-644.4" class="st0"></path>
					<path d="M-138.1-640.5c-0.3,0-0.5,0.2-0.5,0.5c0,0.2,0.2,0.4,0.4,0.5v3.6l-1.8,1.8v8.3l-3.2,3.2v3.5l-1.2,1.2v20.9
						h0.2v-20.9l1.2-1.2v-3.5l3.2-3.2v-8.3l1.8-1.8v-3.7c0.2,0,0.4-0.2,0.4-0.5C-137.6-640.3-137.8-640.5-138.1-640.5" class="st0"></path>
					<path d="M-158.9-652.8c-0.2,0-0.4-0.2-0.4-0.4s0.2-0.4,0.4-0.4s0.4,0.2,0.4,0.4S-158.7-652.8-158.9-652.8
						 M-154.9-659.3c-0.3,0-0.5,0.2-0.5,0.5c0,0.2,0.2,0.4,0.4,0.5v11.9l-0.6,0.6l-3.2-3.2l1.9-1.9v-3.3c0.2,0,0.4-0.2,0.4-0.5
						s-0.2-0.5-0.5-0.5s-0.5,0.2-0.5,0.5c0,0.2,0.2,0.4,0.4,0.5v3.2l-1.7,1.7v-3.3c0.3,0,0.5-0.3,0.5-0.6s-0.3-0.6-0.6-0.6
						s-0.6,0.3-0.6,0.6s0.2,0.5,0.5,0.6v3.6l3.4,3.4v11.2l8.8,8.8v28.8h0.2v-28.8l-2.6-2.6v-2.3l0,0v-1.9c0.2,0,0.4-0.2,0.4-0.5
						s-0.2-0.5-0.5-0.5s-0.5,0.2-0.5,0.5c0,0.2,0.2,0.4,0.4,0.5v1.7l-1.5-1.5v-2.9c0.2,0,0.4-0.2,0.4-0.5s-0.2-0.5-0.5-0.5
						s-0.5,0.2-0.5,0.5c0,0.2,0.2,0.4,0.4,0.5v3l1.7,1.7v2.1l-2.2-2.2v-6l-1.8-1.8v-8.6c0.2,0,0.4-0.2,0.4-0.5s-0.2-0.5-0.5-0.5
						s-0.5,0.2-0.5,0.5c0,0.2,0.2,0.4,0.4,0.5v5.2l-0.7-0.7c0.1-0.1,0.1-0.2,0.1-0.3c0-0.3-0.2-0.5-0.5-0.5s-0.5,0.2-0.5,0.5
						s0.2,0.5,0.5,0.5c0.1,0,0.2,0,0.3-0.1l0.8,0.8v3.2l1.8,1.8v5.8l-2.2-2.2v-1.9l0.6-0.6v-0.5c0.2,0,0.4-0.2,0.4-0.5
						s-0.2-0.5-0.5-0.5s-0.5,0.2-0.5,0.5c0,0.2,0.2,0.4,0.4,0.5v0.5l-0.6,0.6v1.8l-1.2-1.2v-11.1l0.6-0.6v-12c0.2,0,0.4-0.2,0.4-0.5
						C-154.4-659.1-154.6-659.3-154.9-659.3" class="st0"></path>
					<path d="M-157-637.2c-0.2,0-0.4-0.2-0.4-0.4s0.2-0.4,0.4-0.4s0.4,0.2,0.4,0.4C-156.5-637.4-156.7-637.2-157-637.2
						 M-156.3-645.3c-0.3,0-0.5,0.2-0.5,0.5c0,0.2,0.2,0.4,0.4,0.5v3.3l-1.6,1.6v6.5l10.5,10.5v25.6h0.2v-25.7l-10.4-10.4l0.9-0.9
						v-3.1c0.3,0,0.5-0.3,0.5-0.6s-0.3-0.6-0.6-0.6s-0.6,0.3-0.6,0.6s0.2,0.5,0.5,0.6v3l-0.8,0.8v-6.1l1.6-1.6v-3.4
						c0.2,0,0.4-0.2,0.4-0.5C-155.8-645.1-156.1-645.3-156.3-645.3" class="st0"></path>
					<path d="M-114.5-641.8c-0.1,0-0.2,0-0.3-0.1c-0.1-0.2-0.1-0.3-0.1-0.5c0.1-0.1,0.2-0.2,0.4-0.2
						c0.1,0,0.2,0,0.3,0.1c0.1,0.2,0.1,0.3,0.1,0.5C-114.2-641.9-114.3-641.8-114.5-641.8 M-114.5-642.8c-0.2,0-0.4,0.1-0.5,0.3
						s-0.1,0.4,0,0.6l-7,7v2l-3.5,3.5v-2.7l2.1-2.1v-1.2c0.2,0,0.4-0.2,0.4-0.5s-0.2-0.5-0.5-0.5s-0.5,0.2-0.5,0.5
						c0,0.2,0.2,0.4,0.4,0.5v1.1l-2.1,2.1v2.9h-2.1L-141-616v19h0.2v-18.9l13.2-13.2h2.1l3.6-3.6h7.1l4.1-4.1
						c0.1,0.1,0.2,0.1,0.3,0.1c0.3,0,0.5-0.2,0.5-0.5s-0.2-0.5-0.5-0.5s-0.5,0.2-0.5,0.5c0,0.1,0,0.2,0.1,0.3l-1.8,1.8v-2.6
						c0.2,0,0.4-0.2,0.4-0.5s-0.2-0.5-0.5-0.5s-0.5,0.2-0.5,0.5c0,0.2,0.2,0.4,0.4,0.5v2.8l-2.1,2.1h-4l2.2-2.2v-1.7
						c0.2,0,0.4-0.2,0.4-0.5s-0.2-0.5-0.5-0.5s-0.5,0.2-0.5,0.5c0,0.2,0.2,0.4,0.4,0.5v1.6l-2.2,2.2h-2.8v-1.9l5-5h3.6l2-2
						c0.1,0.1,0.2,0.1,0.3,0.1c0.3,0,0.5-0.2,0.5-0.5s-0.2-0.5-0.5-0.5s-0.5,0.2-0.5,0.5c0,0.1,0,0.2,0.1,0.3l-2,2h-3.4l1.8-1.8
						c0.1,0.1,0.2,0.1,0.4,0.1c0.2,0,0.4-0.1,0.5-0.3s0.1-0.5-0.1-0.7l0,0C-114.2-642.7-114.4-642.8-114.5-642.8" class="st0"></path>
					<path d="M-146.8-643.7c-0.2,0-0.4-0.2-0.4-0.4s0.2-0.4,0.4-0.4s0.4,0.2,0.4,0.4
						C-146.4-643.9-146.5-643.7-146.8-643.7 M-147.1-649.4c-0.3,0-0.5,0.2-0.5,0.5s0.2,0.5,0.5,0.5c0.1,0,0.2,0,0.3-0.1l0.9,0.9v2.3
						l-0.5,0.5c-0.1-0.1-0.2-0.1-0.3-0.1c-0.3,0-0.6,0.3-0.6,0.6s0.3,0.6,0.6,0.6s0.6-0.3,0.6-0.6c0-0.1,0-0.2-0.1-0.3l0.6-0.6v-2.5
						l-1-1c0.1-0.1,0.1-0.2,0.1-0.3C-146.6-649.1-146.8-649.4-147.1-649.4" class="st0"></path>
					<path d="M-143.7-649.9c-0.3,0-0.5,0.2-0.5,0.5c0,0.2,0.2,0.4,0.4,0.5v3.5l0.9,0.9v1.5c-0.2,0-0.4,0.2-0.4,0.5
						s0.2,0.5,0.5,0.5s0.5-0.2,0.5-0.5c0-0.2-0.2-0.4-0.4-0.5v-1.6l-0.9-0.9v-3.4c0.2,0,0.4-0.2,0.4-0.5S-143.5-649.9-143.7-649.9" class="st0"></path>
					<path d="M-152.5-643c-0.3,0-0.5,0.2-0.5,0.5s0.2,0.5,0.5,0.5c0.1,0,0.2,0,0.3-0.1l0.7,0.7v2.3
						c-0.2,0-0.4,0.2-0.4,0.5s0.2,0.5,0.5,0.5s0.5-0.2,0.5-0.5c0-0.2-0.2-0.4-0.4-0.5v-2.3l-0.8-0.8c0.1-0.1,0.1-0.2,0.1-0.3
						C-152-642.8-152.3-643-152.5-643" class="st0"></path>
					<path d="M-149.7-626.1c-0.2,0-0.4-0.2-0.4-0.4s0.2-0.4,0.4-0.4s0.4,0.2,0.4,0.4S-149.4-626.1-149.7-626.1
						 M-155.3-632.6c-0.3,0-0.5,0.2-0.5,0.5s0.2,0.5,0.5,0.5c0.1,0,0.2,0,0.3-0.1l4.9,4.9c-0.1,0.1-0.1,0.2-0.1,0.3
						c0,0.3,0.3,0.6,0.6,0.6s0.6-0.3,0.6-0.6s-0.3-0.6-0.6-0.6c-0.1,0-0.2,0-0.3,0.1l-4.9-4.9c0.1-0.1,0.1-0.2,0.1-0.3
						C-154.8-632.4-155-632.6-155.3-632.6" class="st0"></path>
					<path d="M-165.9-640c-0.3,0-0.5,0.2-0.5,0.5c0,0.2,0.2,0.4,0.4,0.5v1.5l2.6,2.6c-0.1,0.1-0.1,0.2-0.1,0.3
						c0,0.3,0.2,0.5,0.5,0.5s0.5-0.2,0.5-0.5s-0.2-0.5-0.5-0.5c-0.1,0-0.2,0-0.3,0.1l-2.5-2.5v-1.4c0.2,0,0.4-0.2,0.4-0.5
						C-165.4-639.8-165.7-640-165.9-640" class="st0"></path>
					<path d="M-160.7-653c-0.3,0-0.5,0.2-0.5,0.5c0,0.2,0.2,0.4,0.4,0.5v3.6l0.7,0.7c-0.1,0.1-0.1,0.2-0.1,0.3
						c0,0.3,0.2,0.5,0.5,0.5s0.5-0.2,0.5-0.5s-0.2-0.5-0.5-0.5c-0.1,0-0.2,0-0.3,0.1l-0.6-0.6v-3.6c0.2,0,0.4-0.2,0.4-0.5
						C-160.2-652.7-160.5-653-160.7-653" class="st0"></path>
					<path d="M-162.4-643.7c-0.2,0-0.4-0.2-0.4-0.4s0.2-0.4,0.4-0.4s0.4,0.2,0.4,0.4
						C-161.9-643.8-162.1-643.7-162.4-643.7 M-162.4-644.7c-0.3,0-0.6,0.3-0.6,0.6s0.2,0.5,0.5,0.6v2.7l1.5,1.5
						c-0.1,0.1-0.1,0.2-0.1,0.3c0,0.3,0.2,0.5,0.5,0.5s0.5-0.2,0.5-0.5s-0.2-0.5-0.5-0.5c-0.1,0-0.2,0-0.3,0.1l-1.4-1.4v-2.7
						c0.3,0,0.5-0.3,0.5-0.6C-161.8-644.4-162-644.7-162.4-644.7" class="st0"></path>
					<path d="M-133.6-633.6c-0.2,0-0.4-0.2-0.4-0.4s0.2-0.4,0.4-0.4s0.4,0.2,0.4,0.4
						C-133.2-633.8-133.4-633.6-133.6-633.6 M-132.1-641.1c-0.3,0-0.5,0.2-0.5,0.5c0,0.2,0.2,0.4,0.4,0.5v4.5l-1.1,1.1
						c-0.1-0.1-0.2-0.1-0.3-0.1c-0.3,0-0.6,0.3-0.6,0.6s0.3,0.6,0.6,0.6s0.6-0.3,0.6-0.6c0-0.1,0-0.2-0.1-0.3l1.1-1.1v-4.6
						c0.2,0,0.4-0.2,0.4-0.5C-131.6-640.9-131.8-641.1-132.1-641.1" class="st0"></path>
					<path d="M-123-658.4c-0.2,0-0.4-0.2-0.4-0.4s0.2-0.4,0.4-0.4c0.2,0,0.4,0.2,0.4,0.4
						C-122.6-658.6-122.8-658.4-123-658.4 M-123-659.4c-0.3,0-0.6,0.3-0.6,0.6s0.2,0.5,0.5,0.6v5.8l2-2v-1.4c0.2,0,0.4-0.2,0.4-0.5
						s-0.2-0.5-0.5-0.5s-0.5,0.2-0.5,0.5c0,0.2,0.2,0.4,0.4,0.5v1.3l-1.6,1.6v-5.4c0.3,0,0.5-0.3,0.5-0.6
						C-122.4-659.2-122.7-659.4-123-659.4" class="st0"></path>
					<path d="M-136-633.4c-0.3,0-0.5,0.2-0.5,0.5c0,0.1,0,0.2,0.1,0.3l-1.4,1.4c-0.1-0.1-0.2-0.1-0.3-0.1
						c-0.3,0-0.5,0.2-0.5,0.5s0.2,0.5,0.5,0.5s0.5-0.2,0.5-0.5c0-0.1,0-0.2-0.1-0.3l1.4-1.4c0.1,0.1,0.2,0.1,0.3,0.1
						c0.3,0,0.5-0.2,0.5-0.5S-135.7-633.4-136-633.4" class="st0"></path>
					<path d="M-133.2-668c-0.3,0-0.5,0.2-0.5,0.5c0,0.2,0.2,0.4,0.4,0.5v3.5l2.2-2.2c0.1,0.1,0.2,0.1,0.3,0.1
						c0.3,0,0.5-0.2,0.5-0.5s-0.2-0.5-0.5-0.5s-0.5,0.2-0.5,0.5c0,0.1,0,0.2,0.1,0.3l-1.8,1.8v-3.1c0.2,0,0.4-0.2,0.4-0.5
						C-132.7-667.7-133-668-133.2-668" class="st0"></path>
					<path d="M-141.5-672.4c-0.3,0-0.5,0.2-0.5,0.5c0,0.2,0.2,0.4,0.4,0.5v3.4l-2.2,2.1v-4c0.2,0,0.4-0.2,0.4-0.5
						s-0.2-0.5-0.5-0.5s-0.5,0.2-0.5,0.5c0,0.2,0.2,0.4,0.4,0.5v4.1l-1.9,1.9l-1.2-1.2v-2.2c0.2,0,0.4-0.2,0.4-0.5s-0.2-0.5-0.5-0.5
						s-0.5,0.2-0.5,0.5c0,0.2,0.2,0.4,0.4,0.5v2.2l1.4,1.4l2.1-2.1l0,0l0,0l2.3-2.3v-3.5c0.2,0,0.4-0.2,0.4-0.5
						C-141-672.2-141.2-672.4-141.5-672.4" class="st0"></path>
					<path d="M-155.5-660.7c-0.2,0-0.4-0.2-0.4-0.4s0.2-0.4,0.4-0.4s0.4,0.2,0.4,0.4S-155.3-660.7-155.5-660.7
						 M-153.1-666.3c-0.3,0-0.5,0.2-0.5,0.5c0,0.1,0,0.2,0.1,0.3l-2.2,2.2v1.7c-0.3,0-0.5,0.3-0.5,0.6s0.3,0.6,0.6,0.6
						s0.6-0.3,0.6-0.6s-0.2-0.5-0.5-0.6v-1.6l2.1-2.1c0.1,0.1,0.2,0.1,0.3,0.1c0.3,0,0.5-0.2,0.5-0.5
						C-152.6-666.1-152.8-666.3-153.1-666.3" class="st0"></path>
					<path d="M-139.8-666.4c-0.3,0-0.5,0.2-0.5,0.5c0,0.2,0.2,0.4,0.4,0.5v4.5l-1.9,1.9v-5.1c0.2,0,0.4-0.2,0.4-0.5
						s-0.2-0.5-0.5-0.5s-0.5,0.2-0.5,0.5c0,0.2,0.2,0.4,0.4,0.5v5.1l-1.9-1.9v-1.9c0.2,0,0.4-0.2,0.4-0.5s-0.2-0.5-0.5-0.5
						s-0.5,0.2-0.5,0.5c0,0.2,0.2,0.4,0.4,0.5v2l2.1,2.1l2.2-2.2v-4.6c0.2,0,0.4-0.2,0.4-0.5C-139.3-666.1-139.5-666.4-139.8-666.4" class="st0"></path>
					<path d="M-157.6-663.7c-0.3,0-0.5,0.2-0.5,0.5c0,0.2,0.2,0.4,0.4,0.5v4.6l-3.2,3.2v-0.7c0.2,0,0.4-0.2,0.4-0.5
						s-0.2-0.5-0.5-0.5s-0.5,0.2-0.5,0.5c0,0.2,0.2,0.4,0.4,0.5v1.1l3.5-3.5v-4.7c0.2,0,0.4-0.2,0.4-0.5
						C-157.1-663.5-157.3-663.7-157.6-663.7" class="st0"></path>
					<path d="M-160.1-629.5c-0.2,0-0.4-0.2-0.4-0.4s0.2-0.4,0.4-0.4s0.4,0.2,0.4,0.4
						C-159.7-629.7-159.8-629.5-160.1-629.5 M-176.2-640.4c-0.2,0-0.4-0.2-0.4-0.4s0.2-0.4,0.4-0.4s0.4,0.2,0.4,0.4
						C-175.8-640.6-175.9-640.4-176.2-640.4 M-176.2-641.4c-0.3,0-0.6,0.3-0.6,0.6s0.3,0.6,0.6,0.6c0.1,0,0.2,0,0.3-0.1l4.9,4.9
						h-3.4l-1.7-1.7c0.1-0.1,0.1-0.2,0.1-0.3c0-0.3-0.2-0.5-0.5-0.5s-0.5,0.2-0.5,0.5s0.2,0.5,0.5,0.5c0.1,0,0.2,0,0.3-0.1l1.8,1.8
						h1.5l-2.1,2.1c-0.1-0.1-0.2-0.1-0.3-0.1c-0.3,0-0.5,0.2-0.5,0.5s0.2,0.5,0.5,0.5s0.5-0.2,0.5-0.5c0-0.1,0-0.2-0.1-0.3l2.3-2.3
						h1.9l3.3,3.3h5.2l1.6,1.6c-0.1,0.1-0.1,0.2-0.1,0.3c0,0.3,0.3,0.6,0.6,0.6s0.6-0.3,0.6-0.6s-0.3-0.6-0.6-0.6
						c-0.1,0-0.3,0-0.3,0.1l-1.7-1.7h-5.2l-8.3-8.3c0.1-0.1,0.1-0.2,0.1-0.3C-175.6-641.1-175.8-641.4-176.2-641.4" class="st0"></path>
					<path d="M-114.7-623c-0.2,0-0.4-0.2-0.4-0.4s0.2-0.4,0.4-0.4c0.2,0,0.4,0.2,0.4,0.4
						C-114.2-623.2-114.4-623-114.7-623 M-114.7-624c-0.3,0-0.6,0.3-0.6,0.6c0,0.1,0,0.2,0.1,0.3l-0.7,0.7h-5.5l-0.6,0.6h-3.5
						l1.1-1.1c0.1,0.1,0.2,0.1,0.3,0.1c0.3,0,0.5-0.2,0.5-0.5s-0.2-0.5-0.5-0.5s-0.5,0.2-0.5,0.5c0,0.1,0,0.2,0.1,0.3l-1.2,1.2h-7.9
						l-6.5,6.5v18.3h0.2v-18.2l6.4-6.4h4.7l2.1,2.1h3.1l1.7,1.7c-0.1,0.1-0.1,0.2-0.1,0.3c0,0.3,0.2,0.5,0.5,0.5s0.5-0.2,0.5-0.5
						s-0.2-0.5-0.5-0.5c-0.1,0-0.2,0-0.3,0.1l-1.7-1.7h-3.1l-1.9-1.9h6.7l1.5,1.5h3.8l0.9,0.9c-0.1,0.1-0.1,0.2-0.1,0.3
						c0,0.3,0.2,0.5,0.5,0.5s0.5-0.2,0.5-0.5s-0.2-0.5-0.5-0.5c-0.1,0-0.2,0-0.3,0.1l-1-1h-3.8l-1.4-1.4l0.5-0.5h5.4l1.6,1.6h2.9
						c0,0.2,0.2,0.4,0.5,0.4s0.5-0.2,0.5-0.5s-0.2-0.5-0.5-0.5c-0.2,0-0.4,0.2-0.5,0.4h-2.8l-1.6-1.6l0.7-0.7
						c0.1,0.1,0.2,0.1,0.3,0.1c0.3,0,0.6-0.3,0.6-0.6C-114.1-623.7-114.3-624-114.7-624" class="st0"></path>
					<path d="M-171.2-647.5c-0.2,0-0.4,0.2-0.5,0.4h-2.6l-2.2,2.2c-0.1-0.1-0.2-0.1-0.3-0.1c-0.3,0-0.5,0.2-0.5,0.5
						s0.2,0.5,0.5,0.5s0.5-0.2,0.5-0.5c0-0.1,0-0.2-0.1-0.3l1.1-1.1v1.9c-0.2,0-0.4,0.2-0.4,0.5s0.2,0.5,0.5,0.5s0.5-0.2,0.5-0.5
						c0-0.2-0.2-0.4-0.4-0.5v-2.1l0.9-0.9h2.5c0,0.2,0.2,0.4,0.5,0.4s0.5-0.2,0.5-0.5C-170.7-647.2-171-647.5-171.2-647.5" class="st0"></path>
					<path d="M-173-645.8c-0.3,0-0.5,0.2-0.5,0.5c0,0.2,0.2,0.4,0.4,0.5v1l1.2,1.2c-0.1,0.1-0.1,0.2-0.1,0.3
						c0,0.3,0.2,0.5,0.5,0.5s0.5-0.2,0.5-0.5s-0.2-0.5-0.5-0.5c-0.1,0-0.2,0-0.3,0.1l-1.1-1.1v-1c0.2,0,0.4-0.2,0.4-0.5
						C-172.5-645.6-172.8-645.8-173-645.8" class="st0"></path>
				</g>
			</g>
		</g>
	</g>
</g>
<g>
	<g>
		<path d="M-26-698.9v35.2h-7.1v-22.9l-9.4,22.9h-5.3l-9.5-22.9v22.9h-7.1v-35.2h8l11.2,26.2l11.2-26.2H-26z" class="st2"></path>
		<path d="M-12-693.2v8.8h11.8v5.6H-12v9.3H1.3v5.7h-20.4V-699H1.3v5.7L-12-693.2L-12-693.2z" class="st2"></path>
		<path d="M29.8-696.7c2.8,1.4,5,3.5,6.5,6.2s2.3,5.8,2.3,9.3s-0.8,6.6-2.3,9.3c-1.5,2.6-3.7,4.7-6.5,6.1
			c-2.8,1.4-6.1,2.2-9.8,2.2H7.7v-35.2H20C23.7-698.9,27-698.2,29.8-696.7z M28.4-672.7c2-2,3-4.9,3-8.5c0-3.7-1-6.5-3-8.6
			s-4.9-3.1-8.6-3.1h-5v23.2h5C23.5-669.7,26.3-670.7,28.4-672.7z" class="st2"></path>
		<path d="M65.6-698.9v5.7H50.9v9h11.2v5.6H50.9v14.9h-7.1v-35.2H65.6z" class="st1"></path>
		<path d="M77.9-665.7c-2.8-1.5-4.9-3.7-6.6-6.4c-1.6-2.7-2.4-5.8-2.4-9.3c0-3.4,0.8-6.5,2.4-9.3
			c1.6-2.7,3.8-4.9,6.6-6.4c2.8-1.5,5.8-2.3,9.1-2.3c3.3,0,6.4,0.8,9.1,2.3s4.9,3.7,6.5,6.4s2.4,5.8,2.4,9.3s-0.8,6.6-2.4,9.3
			s-3.8,4.9-6.5,6.4c-2.8,1.5-5.8,2.3-9.1,2.3C83.6-663.4,80.6-664.1,77.9-665.7z M92.5-671.1c1.6-1,2.9-2.3,3.8-4.1
			s1.4-3.8,1.4-6.2s-0.5-4.4-1.4-6.2s-2.2-3.1-3.8-4.1c-1.6-0.9-3.5-1.4-5.6-1.4s-4,0.5-5.6,1.4s-2.9,2.3-3.8,4.1s-1.4,3.8-1.4,6.2
			s0.5,4.4,1.4,6.2s2.2,3.2,3.8,4.1c1.6,1,3.5,1.4,5.6,1.4C89.1-669.7,90.9-670.1,92.5-671.1z" class="st1"></path>
		<path d="M117.2-669.3h11.6v5.6h-18.7v-35.2h7.1C117.2-698.9,117.2-669.3,117.2-669.3z" class="st1"></path>
		<path d="M153.2-663.7l-12.8-15.7v15.7h-7.1v-35.2h7.1v15.8l12.8-15.8h8.5l-14.5,17.4l14.9,17.7L153.2-663.7
			L153.2-663.7z" class="st1"></path>
		<path d="M172.3-664.6c-2-0.8-3.5-2-4.7-3.6c-1.1-1.6-1.7-3.4-1.8-5.6h7.6c0.1,1.4,0.6,2.6,1.5,3.4
			c0.9,0.8,2.2,1.3,3.8,1.3s2.9-0.4,3.9-1.2c0.9-0.8,1.4-1.8,1.4-3.1c0-1-0.3-1.9-1-2.6c-0.6-0.7-1.4-1.2-2.4-1.6
			c-1-0.4-2.3-0.8-4-1.3c-2.3-0.7-4.1-1.3-5.6-2c-1.4-0.7-2.7-1.6-3.7-3c-1-1.3-1.5-3.1-1.5-5.3c0-2.1,0.5-3.9,1.6-5.4
			c1-1.5,2.5-2.7,4.4-3.6c1.9-0.8,4-1.2,6.5-1.2c3.6,0,6.6,0.9,8.8,2.6c2.3,1.8,3.5,4.2,3.8,7.4h-7.8c-0.1-1.2-0.6-2.2-1.5-3
			c-1-0.8-2.2-1.2-3.8-1.2c-1.4,0-2.5,0.4-3.3,1.1c-0.8,0.7-1.2,1.7-1.2,3.1c0,0.9,0.3,1.7,0.9,2.3c0.6,0.6,1.4,1.1,2.3,1.5
			c0.9,0.4,2.2,0.8,3.9,1.3c2.3,0.7,4.2,1.3,5.6,2c1.4,0.7,2.7,1.7,3.7,3s1.6,3.1,1.6,5.3c0,1.9-0.5,3.6-1.5,5.2
			c-1,1.6-2.4,2.9-4.3,3.9c-1.9,1-4.1,1.4-6.7,1.4C176.4-663.4,174.2-663.8,172.3-664.6z" class="st1"></path>
	</g>
	<g>
		<g>
			<path d="M-55-655.1v2.2h-6.9v4.8h5.4v2.2h-5.4v7.1h-2.7V-655L-55-655.1L-55-655.1z" class="st1"></path>
			<path d="M-46.2-651.4c0.6-0.4,1.4-0.5,2.3-0.5v2.7h-0.7c-1,0-1.8,0.3-2.4,0.8c-0.5,0.5-0.8,1.4-0.8,2.7v6.8h-2.7
				v-12.8h2.7v1.9C-47.4-650.5-46.9-651-46.2-651.4z" class="st1"></path>
			<path d="M-37.1-639.5c-1-0.6-1.7-1.3-2.3-2.3s-0.8-2.2-0.8-3.5s0.3-2.5,0.9-3.5c0.6-1,1.4-1.8,2.4-2.3
				s2.1-0.8,3.3-0.8s2.3,0.3,3.3,0.8s1.8,1.3,2.4,2.3s0.9,2.2,0.9,3.5s-0.3,2.5-0.9,3.5s-1.4,1.8-2.4,2.3c-1,0.6-2.1,0.8-3.4,0.8
				S-36.1-638.9-37.1-639.5z M-31.9-641.5c0.6-0.3,1.1-0.8,1.5-1.5s0.6-1.4,0.6-2.4c0-0.9-0.2-1.7-0.5-2.4c-0.4-0.6-0.8-1.1-1.4-1.5
				c-0.6-0.3-1.2-0.5-1.9-0.5s-1.3,0.2-1.9,0.5c-0.6,0.3-1,0.8-1.4,1.5c-0.3,0.6-0.5,1.4-0.5,2.4c0,1.4,0.4,2.4,1.1,3.2
				c0.7,0.8,1.6,1.1,2.7,1.1C-33.2-641-32.5-641.1-31.9-641.5z" class="st1"></path>
			<path d="M-4.2-651.3c0.8,0.4,1.4,1,1.9,1.9c0.5,0.8,0.7,1.8,0.7,3v7.6h-2.6v-7.2c0-1.1-0.3-2-0.9-2.6
				s-1.4-0.9-2.4-0.9s-1.8,0.3-2.4,0.9c-0.6,0.6-0.9,1.5-0.9,2.6v7.2h-2.6v-7.2c0-1.1-0.3-2-0.9-2.6c-0.6-0.6-1.4-0.9-2.4-0.9
				s-1.8,0.3-2.4,0.9c-0.6,0.6-0.9,1.5-0.9,2.6v7.2h-2.7v-12.8h2.7v1.5c0.4-0.5,1-0.9,1.7-1.2s1.4-0.4,2.1-0.4c1,0,1.9,0.2,2.7,0.7
				c0.8,0.4,1.4,1.1,1.9,1.9c0.4-0.8,1-1.4,1.8-1.9s1.7-0.7,2.7-0.7C-5.9-651.9-5-651.7-4.2-651.3z" class="st1"></path>
			<path d="M14.6-655.1v16.2h-2.7v-16.2H14.6z" class="st1"></path>
			<path d="M29.3-651.3c0.8,0.4,1.4,1,1.9,1.9c0.5,0.8,0.7,1.8,0.7,3v7.6h-2.6v-7.2c0-1.1-0.3-2-0.9-2.6
				s-1.4-0.9-2.4-0.9s-1.8,0.3-2.4,0.9c-0.6,0.6-0.9,1.5-0.9,2.6v7.2H20v-12.8h2.7v1.5c0.4-0.5,1-0.9,1.7-1.2s1.4-0.4,2.2-0.4
				C27.6-651.9,28.5-651.7,29.3-651.3z" class="st1"></path>
			<path d="M42.7-649.5h-2.4v10.7h-2.7v-10.7h-1.5v-2.2h1.5v-0.9c0-1.5,0.4-2.5,1.2-3.2s2-1,3.7-1v2.2
				c-0.8,0-1.4,0.2-1.7,0.5s-0.5,0.8-0.5,1.6v0.9h2.4V-649.5z" class="st1"></path>
			<path d="M49.4-639.5c-1-0.6-1.7-1.3-2.3-2.3s-0.8-2.2-0.8-3.5s0.3-2.5,0.9-3.5c0.6-1,1.4-1.8,2.4-2.3
				s2.1-0.8,3.3-0.8s2.3,0.3,3.3,0.8s1.8,1.3,2.4,2.3c0.6,1,0.9,2.2,0.9,3.5s-0.3,2.5-0.9,3.5c-0.6,1-1.4,1.8-2.4,2.3
				c-1,0.6-2.1,0.8-3.4,0.8S50.4-638.9,49.4-639.5z M54.6-641.5c0.6-0.3,1.1-0.8,1.5-1.5s0.6-1.4,0.6-2.4c0-0.9-0.2-1.7-0.5-2.4
				c-0.4-0.6-0.8-1.1-1.4-1.5c-0.6-0.3-1.2-0.5-1.9-0.5s-1.3,0.2-1.9,0.5c-0.6,0.3-1,0.8-1.4,1.5c-0.3,0.6-0.5,1.4-0.5,2.4
				c0,1.4,0.4,2.4,1.1,3.2c0.7,0.8,1.6,1.1,2.7,1.1C53.4-641,54-641.1,54.6-641.5z" class="st1"></path>
			<path d="M66.7-656.1v17.2H64v-17.2H66.7z" class="st1"></path>
			<path d="M77.3-645.3l5.9,6.4h-3.6l-4.8-5.5v5.5h-2.7v-17.2h2.7v10l4.7-5.6h3.7L77.3-645.3z" class="st1"></path>
			<path d="M89.2-639.2c-0.8-0.4-1.4-0.9-1.9-1.5s-0.7-1.3-0.7-2.1h2.7c0,0.5,0.3,1,0.8,1.4s1.1,0.5,1.8,0.5
				c0.7,0,1.3-0.1,1.7-0.4c0.4-0.3,0.6-0.7,0.6-1.1c0-0.5-0.2-0.8-0.7-1.1c-0.5-0.2-1.2-0.5-2.2-0.8s-1.7-0.5-2.4-0.8
				s-1.1-0.6-1.6-1.1c-0.4-0.5-0.7-1.2-0.7-2c0-0.7,0.2-1.3,0.6-1.9c0.4-0.6,1-1,1.7-1.3c0.8-0.3,1.6-0.5,2.6-0.5
				c1.5,0,2.6,0.4,3.5,1.1c0.9,0.7,1.4,1.7,1.4,3H94c0-0.6-0.3-1-0.7-1.4c-0.4-0.3-1-0.5-1.7-0.5s-1.2,0.1-1.6,0.4
				c-0.4,0.3-0.6,0.6-0.6,1c0,0.3,0.1,0.6,0.4,0.9c0.2,0.2,0.6,0.4,0.9,0.5c0.4,0.1,0.9,0.3,1.6,0.5c0.9,0.2,1.7,0.5,2.3,0.8
				c0.6,0.3,1.1,0.6,1.5,1.1s0.7,1.2,0.7,2c0,0.7-0.2,1.4-0.6,2s-1,1-1.7,1.4c-0.7,0.3-1.6,0.5-2.6,0.5
				C90.9-638.7,90-638.9,89.2-639.2z" class="st1"></path>
			<path d="M121.6-650.4c-0.4-0.8-1-1.4-1.7-1.8c-0.7-0.4-1.6-0.6-2.6-0.6c-1.1,0-2,0.2-2.9,0.7c-0.8,0.5-1.5,1.2-2,2
				c-0.5,0.9-0.7,1.9-0.7,3.1s0.2,2.2,0.7,3.1c0.5,0.9,1.1,1.6,2,2.1c0.8,0.5,1.8,0.7,2.9,0.7c1.4,0,2.6-0.4,3.5-1.2
				s1.5-1.9,1.7-3.3h-6.1v-2.1h8.9v2.1c-0.2,1.3-0.6,2.4-1.3,3.5c-0.7,1.1-1.7,1.9-2.8,2.5c-1.2,0.6-2.4,0.9-3.9,0.9
				s-2.9-0.4-4.2-1.1c-1.3-0.7-2.3-1.7-3-2.9s-1.1-2.7-1.1-4.3s0.4-3,1.1-4.3s1.7-2.2,3-2.9s2.7-1.1,4.2-1.1c1.7,0,3.3,0.4,4.6,1.3
				s2.3,2,2.9,3.6H121.6z" class="st1"></path>
			<path d="M134.1-651.4c0.6-0.4,1.4-0.5,2.3-0.5v2.7h-0.7c-1,0-1.8,0.3-2.4,0.8c-0.5,0.5-0.8,1.4-0.8,2.7v6.8h-2.7
				v-12.8h2.7v1.9C133-650.5,133.5-651,134.1-651.4z" class="st1"></path>
			<path d="M143.2-639.5c-1-0.6-1.7-1.3-2.3-2.3s-0.8-2.2-0.8-3.5s0.3-2.5,0.9-3.5c0.6-1,1.4-1.8,2.4-2.3
				s2.1-0.8,3.3-0.8s2.3,0.3,3.3,0.8s1.8,1.3,2.4,2.3c0.6,1,0.9,2.2,0.9,3.5s-0.3,2.5-0.9,3.5c-0.6,1-1.4,1.8-2.4,2.3
				c-1,0.6-2.1,0.8-3.4,0.8S144.2-638.9,143.2-639.5z M148.4-641.5c0.6-0.3,1.1-0.8,1.5-1.5s0.6-1.4,0.6-2.4c0-0.9-0.2-1.7-0.5-2.4
				c-0.4-0.6-0.8-1.1-1.4-1.5c-0.6-0.3-1.2-0.5-1.9-0.5s-1.3,0.2-1.9,0.5c-0.6,0.3-1,0.8-1.4,1.5c-0.3,0.6-0.5,1.4-0.5,2.4
				c0,1.4,0.4,2.4,1.1,3.2c0.7,0.8,1.6,1.1,2.7,1.1C147.2-641,147.8-641.1,148.4-641.5z" class="st1"></path>
			<path d="M169.5-651.7v12.8h-2.7v-1.5c-0.4,0.5-1,0.9-1.6,1.2c-0.7,0.3-1.4,0.5-2.2,0.5c-1,0-1.9-0.2-2.7-0.6
				c-0.8-0.4-1.4-1-1.9-1.9c-0.5-0.8-0.7-1.8-0.7-3v-7.5h2.6v7.1c0,1.1,0.3,2,0.9,2.6c0.6,0.6,1.4,0.9,2.4,0.9s1.8-0.3,2.4-0.9
				c0.6-0.6,0.9-1.5,0.9-2.6v-7.1H169.5z" class="st1"></path>
			<path d="M179.5-651.3c0.8-0.4,1.7-0.6,2.6-0.6c1.1,0,2.1,0.3,3.1,0.8c0.9,0.6,1.6,1.3,2.2,2.3c0.5,1,0.8,2.1,0.8,3.4
				c0,1.3-0.3,2.4-0.8,3.5c-0.5,1-1.3,1.8-2.2,2.4c-0.9,0.6-1.9,0.8-3.1,0.8c-1,0-1.8-0.2-2.6-0.6c-0.8-0.4-1.4-0.9-1.9-1.5v8h-2.7
				v-18.9h2.7v1.9C178.2-650.4,178.8-650.9,179.5-651.3z M185-647.6c-0.4-0.6-0.8-1.1-1.4-1.5c-0.6-0.3-1.2-0.5-1.9-0.5
				s-1.3,0.2-1.9,0.5c-0.6,0.3-1.1,0.8-1.4,1.5c-0.4,0.7-0.5,1.4-0.5,2.3c0,0.9,0.2,1.7,0.5,2.3c0.4,0.7,0.8,1.2,1.4,1.5
				c0.6,0.3,1.2,0.5,1.9,0.5s1.3-0.2,1.9-0.5c0.6-0.3,1.1-0.9,1.4-1.5c0.4-0.7,0.5-1.4,0.5-2.3C185.5-646.2,185.3-647,185-647.6z" class="st1"></path>
		</g>
	</g>
</g>
<g>
	<circle r="64.3" cy="-685.4" cx="360.5" class="st0"></circle>
	<g>
		<g>
			<path d="M360.8-699.6c-0.7,0-1.2,0.1-1.8,0c-0.9-0.1-1.5-0.7-1.8-1.5s-0.1-1.4,0.5-2c0.3-0.3,0.6-0.6,1-0.3
				c0.4,0.4,0.2,0.7-0.1,1c-0.6,0.7-0.2,1.5,0.7,1.6c0.5,0.1,1,0,1.5,0c0-1.4,0-2.7,0-4.1c-0.8,0-1.5,0-2.2,0
				c-1.4-0.1-2.6-1.1-2.9-2.4c-0.2-1,0.3-2.3,1.2-2.8c0.2-0.1,0.6-0.1,0.7,0.1c0.1,0.1,0.1,0.5,0.1,0.8c0,0.1-0.1,0.1-0.2,0.2
				c-0.5,0.5-0.8,1.1-0.6,1.8c0.3,0.8,0.9,1.2,1.7,1.3c0.7,0.1,1.5,0,2.2,0c0-1.7,0-3.2,0-4.8c-0.9,0-1.8,0-2.8,0
				c-1.5,0-2.6-0.6-3.5-1.7c-1.4-1.7-1-4.1,0.7-5.3c0.2-0.1,0.6,0,0.9,0c0,0.3-0.1,0.6-0.1,0.9l-0.1,0.1c-0.8,0.8-1.4,1.7-0.9,2.8
				c0.5,1.2,1.4,1.9,2.8,2c1,0.1,2,0,3,0c0-4.6,0-9.1,0-13.6c-1.1-0.3-2.1-0.9-2.5-2.1c-0.2-0.7-0.3-1.5-0.2-2.2
				c0.3-1.6,1.8-2.6,3.5-2.6c1.6,0.1,2.9,1.2,3.2,2.7c0.4,1.9-0.5,3.1-2.8,4.2c0,4.5,0,9,0,13.5c0.7,0.2,1.5,0.4,2.2,0.6
				c0.5,0.2,1,0.4,1.5,0.6c2.2,1.1,2.8,3.2,1.4,5.3c-0.2,0.3-0.4,0.7-0.9,0.4c-0.4-0.3-0.3-0.6-0.1-1c0.2-0.3,0.3-0.7,0.5-1
				c0.3-0.8,0.1-1.5-0.6-2.1c-1.1-0.9-2.5-1.2-4-1.6c0,1.6,0,3.1,0,4.6c0,0.1,0.2,0.3,0.4,0.4c0.7,0.3,1.4,0.5,2.1,0.8
				c1.5,0.8,1.9,2.5,0.8,3.9c-0.1,0.2-0.5,0.2-0.8,0.3c-0.1-0.3-0.2-0.6-0.1-0.9c0.6-1.4,0.4-2-1-2.6c-0.4-0.2-0.8-0.3-1.4-0.5
				c0,1.3,0,2.6,0,3.9c0,0.1,0.2,0.3,0.4,0.4c0.3,0.2,0.7,0.3,1,0.5c1,0.6,1.3,1.8,0.6,2.8c-0.1,0.2-0.5,0.2-0.8,0.3
				c-0.1-0.3-0.3-0.6-0.2-0.8c0.3-1,0.2-1.3-1-1.5c0,0.8,0,1.6,0,2.4c0,0.4-0.1,0.8-0.6,0.8s-0.6-0.4-0.6-0.8
				C360.8-697.7,360.8-698.6,360.8-699.6z M363.6-729c0-1.2-1-2.2-2.3-2.3c-1.2,0-2.3,1-2.3,2.2c0,1.3,1,2.3,2.3,2.3
				C362.6-726.7,363.6-727.7,363.6-729z" class="st1"></path>
			<path d="M375.6-719.5c0.4,1,0.3,1.3-0.7,1.3c-0.7,0-1.4-0.2-2.1-0.3c-0.1,0.9-0.3,1.1-1.3,1
				c-0.8-0.1-1.6-0.3-2.4-0.5c-1.7-0.5-3.4-0.9-5.2-0.3c-0.5,0.2-0.8-0.1-0.8-0.6c0-1.8,0-3.5,0-5.3c0-0.2,0.2-0.5,0.3-0.7
				c1.5-1.5,3.3-1.9,5.2-1.1c1,0.5,2,1.1,3,1.6c0.8,0.4,1.5,0.9,2.3,1.3c1.1,0.6,2.3,0.9,3.6,0.8c0.2,0,0.6,0.1,0.7,0.2
				c0.1,0.2,0,0.6-0.1,0.8C377.6-719.9,376.7-719.5,375.6-719.5z M364.2-719.5c2.5-0.7,4.7,0.5,7,0.9c0-0.2-0.1-0.4-0.1-0.5
				c0.1-0.4,0.1-0.9,0.4-1.1c0.2-0.2,0.7,0.1,1.1,0.2c0.4,0.1,0.9,0.4,1.2,0.5c0-0.4-0.2-0.9-0.1-1.1c0.1-0.2,0.6-0.2,1-0.2
				c0.5,0,1,0,1.5,0.1c-1.2-0.5-2.4-0.9-3.5-1.5c-1-0.5-1.8-1.2-2.8-1.7c-0.8-0.4-1.6-0.8-2.4-1.1c-1.1-0.4-2.1,0-3,0.8
				c-0.1,0.1-0.2,0.3-0.2,0.5C364.2-722.3,364.2-721,364.2-719.5z" class="st1"></path>
			<path d="M349.9-718.5c-0.7,0.1-1.3,0.3-2,0.3c-1.1,0-1.3-0.3-0.9-1.4c-1.1,0-1.9-0.4-2.4-1.4
				c-0.1-0.3-0.2-0.7-0.1-0.9s0.5-0.3,0.8-0.2c1.2,0.1,2.3-0.2,3.3-0.8c1.1-0.6,2.2-1.4,3.4-2c1-0.5,2-1,3-1.4
				c1.7-0.5,3.2,0.2,4.4,1.4c0.2,0.2,0.2,0.5,0.2,0.7c0,1.7,0,3.4,0,5c0,0.7-0.3,0.9-0.9,0.7c-1.5-0.6-3-0.3-4.5,0.1
				c-1,0.3-2.1,0.6-3.1,0.7C350.2-717.3,350-717.6,349.9-718.5z M351.4-718.6c2.4-0.5,4.6-1.7,7.1-1c0-1.5,0-2.8,0-4.2
				c0-0.2-0.2-0.4-0.3-0.6c-1.1-0.9-2.3-1.1-3.6-0.5c-1,0.5-2,1.1-3,1.7c-1.2,0.7-2.5,1.3-3.7,1.9c-0.4,0.2-0.8,0.2-1.3,0.3
				c0,0.1,0,0.1,0,0.2c0.6-0.1,1.1-0.2,1.7-0.2c0.2,0,0.6,0.1,0.7,0.3c0.1,0.1,0,0.5-0.1,0.7c0,0.1-0.2,0.3-0.2,0.4l0.1,0.1
				c0.5-0.3,1-0.5,1.5-0.8c0.7-0.4,1.3-0.1,1.3,0.8C351.6-719.2,351.5-718.9,351.4-718.6z" class="st1"></path>
			<path d="M369.2-714.8c0,1.3-0.8,2.5-2,3c-0.4,0.2-0.8,0.2-1-0.2s0.1-0.7,0.4-0.8c0.8-0.4,1.3-0.9,1.4-1.8
				c0-0.9-0.4-1.4-1.1-1.8c-0.4-0.2-0.7-0.5-0.5-0.9c0.3-0.5,0.7-0.3,1-0.1C368.5-717,369.2-716,369.2-714.8z" class="st1"></path>
			<path d="M359.1-697.9c0.3,0.1,0.5,0.2,0.6,0.3c0.2,0.2,0.5,0.4,0.5,0.6c0,0.2-0.3,0.5-0.5,0.5
				c-0.5-0.1-1-0.2-1.3-0.5c-0.4-0.4-0.5-1-0.1-1.5c0.3-0.3,0.8-0.5,1.2-0.7c0.1,0,0.4,0.2,0.5,0.4c0,0.2-0.1,0.4-0.2,0.6
				C359.6-698.1,359.4-698,359.1-697.9z" class="st1"></path>
		</g>
		<g>
			<path d="M360.5-692.8c0.1,11.4,0.1,22.7,0.2,34.1c0,1.8-0.7,2.9-2.3,3.9c-7.9,5-15.8,10.1-23.7,15.1
				c-3.6,2.3-4.7,1.6-4.8-2.7c-0.2-8.6-0.4-17.3-0.6-25.9c-0.1-2.8,0.6-5.1,3.1-6.7C341.7-681,351.1-686.9,360.5-692.8z" class="st1"></path>
			<path d="M360.5-692.8c-9.4,5.9-18.7,11.9-28.1,17.8c-2.7-2.9-6.4-4.5-9.7-6.7c-2.2-1.4-3.3-3.1-3.2-5.8
				c0.1-8.8,0.1-17.6,0.2-26.3c0.1-4.3,2-5.3,5.6-3c10.5,6.7,21.1,13.4,31.6,20.1C358.4-695.7,360.4-695.1,360.5-692.8z" class="st2"></path>
		</g>
		<g>
			<path d="M362.2-692.8c-0.1,11.4-0.1,22.7-0.2,34.1c0,1.8,0.7,2.9,2.3,3.9c7.9,5,15.8,10.1,23.7,15.1
				c3.6,2.3,4.7,1.6,4.8-2.7c0.2-8.6,0.4-17.3,0.6-25.9c0.1-2.8-0.6-5.1-3.1-6.7C381-681,371.6-686.9,362.2-692.8z" class="st1"></path>
			<path d="M362.2-692.8c9.4,5.9,18.7,11.9,28.1,17.8c2.7-2.9,6.4-4.5,9.7-6.7c2.2-1.4,3.3-3.1,3.2-5.8
				c-0.1-8.8-0.1-17.6-0.2-26.3c-0.1-4.3-2-5.3-5.6-3c-10.5,6.7-21.1,13.4-31.6,20.1C364.3-695.7,362.3-695.1,362.2-692.8z" class="st2"></path>
		</g>
	</g>
	<path d="M360.5-692.8c0.1,11.4,0.1,22.7,0.2,34.1c0,1.8-0.7,2.9-2.3,3.9c-7.9,5-15.8,10.1-23.7,15.1
		c-3.6,2.3-4.7,1.6-4.8-2.7c-0.2-8.6-0.4-17.3-0.6-25.9c-0.1-2.8,0.6-5.1,3.1-6.7C341.7-681,351.1-686.9,360.5-692.8z" class="st1"></path>
	<path d="M362.2-692.8c-0.1,11.4-0.1,22.7-0.2,34.1c0,1.8,0.7,2.9,2.3,3.9c7.9,5,15.8,10.1,23.7,15.1
		c3.6,2.3,4.7,1.6,4.8-2.7c0.2-8.6,0.4-17.3,0.6-25.9c0.1-2.8-0.6-5.1-3.1-6.7C381-681,371.6-686.9,362.2-692.8z" class="st1"></path>
	<g>
		<g>
			<g>
				<defs>
					<path d="M325.1-642.2l6,3.8c0,0,1.4,0.3,3.5-1.3
						c2.5-1.6,23.8-15.1,23.8-15.1s1.3-0.7,2.1-2.1c0-1,0.2-1.5,0.2-1.5l-0.2-34.4h1.7l-0.2,34.6c0,0-0.1,1,1.1,2.4
						c0.2,0.2,0.8,0.7,0.8,0.7l24.1,15.3c0,0,2,1.2,2.9,1.3c0.6-0.1,1.2-0.1,1.6-1.4c0,0,5.5-3.2,5.7-3.4c0.2-0.1,5.9-28.9,5.9-28.9
						s-7.5-16.9-7.7-17.5s-31.1-6.2-31.8-6.8c-0.7-0.6-31.4,5.4-31.6,5.7s-15.3,12.7-15.7,13.4c-0.4,0.8-3.4,18.7-2.9,20
						s5.1,8.6,5.1,8.6" id="SVGID_00000142876938122157887120000000758059708210057133_"></path>
				</defs>
				<clipPath id="SVGID_00000176725911480479738340000012731183677104507267_">
					<use style="overflow:visible;" xlink:href="#SVGID_00000142876938122157887120000000758059708210057133_"></use>
				</clipPath>
				<g style="opacity:0.25;clip-path:url(#SVGID_00000176725911480479738340000012731183677104507267_);">
					<path d="M341-673.8c-0.2,0-0.4-0.2-0.4-0.4s0.2-0.4,0.4-0.4c0.2,0,0.4,0.2,0.4,0.4S341.3-673.8,341-673.8
						 M345.9-677.1c-0.3,0-0.5,0.2-0.5,0.5c0,0.1,0,0.2,0.1,0.3l-2.9,2.9v5.5l-1.6,1.6v-7.2c0.3,0,0.5-0.3,0.5-0.6s-0.3-0.6-0.6-0.6
						c-0.3,0-0.6,0.3-0.6,0.6s0.2,0.5,0.5,0.6v5.2l-2.1-2.1v-5c0.2,0,0.4-0.2,0.4-0.5s-0.2-0.5-0.5-0.5s-0.5,0.2-0.5,0.5
						c0,0.2,0.2,0.4,0.4,0.5v5l2.2,2.2v4.3l1.9,1.9v5l-1.5-1.5v-2.6l-2.8-2.8v-3.7c0.2,0,0.4-0.2,0.4-0.5s-0.2-0.5-0.5-0.5
						s-0.5,0.2-0.5,0.5c0,0.2,0.2,0.4,0.4,0.5v3.6l-1.6-1.6v-1.9l-1.4-1.4v-3.4c0.2,0,0.4-0.2,0.4-0.5s-0.2-0.5-0.5-0.5
						s-0.5,0.2-0.5,0.5c0,0.2,0.2,0.4,0.4,0.5v3.5l1.4,1.4v1.7l-4.5-4.5c0.1-0.1,0.1-0.2,0.1-0.3c0-0.3-0.2-0.5-0.5-0.5
						s-0.5,0.2-0.5,0.5s0.2,0.5,0.5,0.5c0.1,0,0.2,0,0.3-0.1l3.5,3.5h-2.9l-1.3-1.3c0.1-0.1,0.1-0.2,0.1-0.3c0-0.3-0.2-0.5-0.5-0.5
						s-0.5,0.2-0.5,0.5s0.2,0.5,0.5,0.5c0.1,0,0.2,0,0.3-0.1l1.3,1.3l-1.3,1.3c-0.1-0.1-0.2-0.1-0.3-0.1c-0.3,0-0.5,0.2-0.5,0.5
						s0.2,0.5,0.5,0.5s0.5-0.2,0.5-0.5c0-0.1,0-0.2-0.1-0.3l1.3-1.3h3l5.6,5.6v2.4l-2.1-2.1c0.1-0.1,0.1-0.2,0.1-0.3
						c0-0.3-0.2-0.5-0.5-0.5s-0.5,0.2-0.5,0.5s0.2,0.5,0.5,0.5c0.1,0,0.2,0,0.3-0.1l2.2,2.2l5.3,5.3v3.2l12.2,12.2v23.5h0.2v-23.5
						L346.7-650v-3l1.2-1.2v-4.2l1.2-1.2v-2.1c0.2,0,0.4-0.2,0.4-0.5s-0.2-0.5-0.5-0.5s-0.5,0.2-0.5,0.5c0,0.2,0.2,0.4,0.4,0.5v2
						l-1.1,1.1l-0.9-0.9v-2.2c0.2,0,0.4-0.2,0.4-0.5s-0.2-0.5-0.5-0.5s-0.5,0.2-0.5,0.5c0,0.2,0.2,0.4,0.4,0.5v2.3l1,1v4.1l-1.1,1.1
						l-3.6-3.6v-5.1l1.4-1.4v-5.6c0.2,0,0.4-0.2,0.4-0.5s-0.2-0.5-0.5-0.5s-0.5,0.2-0.5,0.5c0,0.2,0.2,0.4,0.4,0.5v5.5l-1.3,1.3
						L341-664v-2.2l1.7-1.7v-5.5l2.8-2.8c0.1,0.1,0.2,0.1,0.3,0.1c0.3,0,0.5-0.2,0.5-0.5C346.4-676.8,346.2-677.1,345.9-677.1" class="st0"></path>
					<path d="M336-661.8c-0.2,0-0.4-0.2-0.4-0.4s0.2-0.4,0.4-0.4c0.2,0,0.4,0.2,0.4,0.4S336.3-661.8,336-661.8
						 M336-662.8c-0.3,0-0.6,0.3-0.6,0.6s0.2,0.5,0.5,0.6v0.9l1.6,1.6v2.7h-1.6l-1.6-1.6c0.1-0.1,0.1-0.2,0.1-0.3
						c0-0.3-0.2-0.5-0.5-0.5s-0.5,0.2-0.5,0.5s0.2,0.5,0.5,0.5c0.1,0,0.2,0,0.3-0.1l1.7,1.7h1.8l3.5,3.5H339l-1.2-1.2
						c0.1-0.1,0.1-0.2,0.1-0.3c0-0.3-0.2-0.5-0.5-0.5s-0.5,0.2-0.5,0.5s0.2,0.5,0.5,0.5c0.1,0,0.2,0,0.3-0.1l1.3,1.3h2.4l1.9,1.9
						h2.1l13.2,13.2v23.2h0.2v-23.3l-13.3-13.3h-2.1l-5.5-5.5v-2.9l-1.6-1.6v-0.8c0.3,0,0.5-0.3,0.5-0.6
						C336.6-662.5,336.3-662.8,336-662.8" class="st0"></path>
					<path d="M335.9-648.8c-0.3,0-0.5,0.2-0.5,0.5s0.2,0.5,0.5,0.5c0.2,0,0.4-0.2,0.5-0.4h7l-1,1H334
						c0-0.2-0.2-0.4-0.5-0.4s-0.5,0.2-0.5,0.5s0.2,0.5,0.5,0.5c0.2,0,0.4-0.2,0.5-0.4h8.5l1.1-1.1l1.7,1.7h-9.8l-0.9,0.9
						c-0.1-0.1-0.2-0.1-0.3-0.1c-0.3,0-0.5,0.2-0.5,0.5s0.2,0.5,0.5,0.5s0.5-0.2,0.5-0.5c0-0.1,0-0.2-0.1-0.3l0.8-0.8h9.9l1.1,1.1
						h3.7l7.9,7.9v23h0.2v-23.1l-8-8h-3.7l-3-3h-7.2C336.3-648.6,336.1-648.8,335.9-648.8" class="st0"></path>
					<path d="M337.2-644.8c-0.3,0-0.5,0.2-0.5,0.5s0.2,0.5,0.5,0.5c0.1,0,0.2,0,0.3-0.1l2,2h7.1l-1.6,1.6h-4.7
						c0-0.2-0.2-0.4-0.5-0.4s-0.5,0.2-0.5,0.5s0.2,0.5,0.5,0.5c0.2,0,0.4-0.2,0.5-0.4h4.8l1.8-1.8h6.1l4.9,4.9v22.8h0.2V-637l-5-5
						h-3.4l-1.8-1.8h-5.7c0-0.2-0.2-0.4-0.5-0.4s-0.5,0.2-0.5,0.5s0.2,0.5,0.5,0.5c0.2,0,0.4-0.2,0.5-0.4h5.7l1.6,1.6h-9.7l-2-2
						c0.1-0.1,0.1-0.2,0.1-0.3C337.7-644.6,337.5-644.8,337.2-644.8" class="st0"></path>
					<path d="M332.6-640.2c-0.1,0-0.1,0-0.2,0l-0.2-0.2c-0.1-0.1-0.1-0.3,0-0.4c0.1-0.1,0.2-0.2,0.3-0.2h0.2l0.2,0.2
						c0.1,0.1,0.1,0.3,0,0.4C332.9-640.2,332.7-640.2,332.6-640.2 M332.6-641.2c-0.2,0-0.4,0.1-0.5,0.3s-0.1,0.4,0,0.6
						c0.1,0.1,0.1,0.2,0.3,0.3c0.1,0,0.2,0.1,0.3,0.1c0.1,0,0.2,0,0.3-0.1l0.8,0.8h9.5l0.5,0.5l-1.5,1.5h-5.7l-0.8,0.8
						c-0.1-0.1-0.2-0.1-0.3-0.1c-0.3,0-0.5,0.2-0.5,0.5s0.2,0.5,0.5,0.5s0.5-0.2,0.5-0.5c0-0.1,0-0.2-0.1-0.3l0.8-0.8h3.6l-1.2,1.2
						c-0.1-0.1-0.2-0.1-0.3-0.1c-0.3,0-0.5,0.2-0.5,0.5s0.2,0.5,0.5,0.5s0.5-0.2,0.5-0.5c0-0.1,0-0.2-0.1-0.3l1.3-1.3h1.9l1.6-1.6h8
						l-2.5,2.5h-2.8c0-0.2-0.2-0.4-0.5-0.4s-0.5,0.2-0.5,0.5s0.2,0.5,0.5,0.5c0.2,0,0.4-0.2,0.5-0.4h2.9l2.6-2.6h3.4l1.9,1.9v22.5
						h0.2v-22.6l-2.1-2.1h-5.1l-1.3-1.3c0.1-0.1,0.1-0.2,0.1-0.3c0-0.3-0.2-0.5-0.5-0.5s-0.5,0.2-0.5,0.5s0.2,0.5,0.5,0.5
						c0.1,0,0.2,0,0.3-0.1l1.2,1.2h-6.4l-0.6-0.6h-9.5l-0.7-0.7l0,0c0.1-0.2,0.1-0.4,0-0.6c-0.1-0.1-0.1-0.2-0.3-0.3
						C332.8-641.1,332.7-641.2,332.6-641.2" class="st0"></path>
					<path d="M392.1-667.6c-0.3,0-0.5,0.2-0.5,0.5c0,0.1,0,0.2,0.1,0.3l-3.4,3.4l0,0l0,0l-2,2v-2c0.2,0,0.4-0.2,0.4-0.5
						s-0.2-0.5-0.5-0.5s-0.5,0.2-0.5,0.5c0,0.2,0.2,0.4,0.4,0.5v2.2l-3,3v1.7l-1.6-1.6c0.1-0.1,0.1-0.2,0.1-0.3
						c0-0.3-0.2-0.5-0.5-0.5s-0.5,0.2-0.5,0.5s0.2,0.5,0.5,0.5c0.1,0,0.2,0,0.3-0.1l1.7,1.7v2.1l-5.3,5.3v3.2l-12.2,12.2v19.3h0.2
						v-19.2l12.2-12.2v-3.2l5.3-5.3l2.8-2.8c0.1,0.1,0.2,0.1,0.3,0.1c0.3,0,0.5-0.2,0.5-0.5s-0.2-0.5-0.5-0.5s-0.5,0.2-0.5,0.5
						c0,0.1,0,0.2,0.1,0.3l-2.6,2.6v-3.8l1.7-1.7h4.5l0.5-0.5c0.1,0.1,0.2,0.1,0.3,0.1c0.3,0,0.5-0.2,0.5-0.5s-0.2-0.5-0.5-0.5
						s-0.5,0.2-0.5,0.5c0,0.1,0,0.2,0.1,0.3l-0.5,0.5h-4.3l3.2-3.2h2.5l1.2-1.2c0.1,0.1,0.2,0.1,0.3,0.1c0.3,0,0.5-0.2,0.5-0.5
						s-0.2-0.5-0.5-0.5s-0.5,0.2-0.5,0.5c0,0.1,0,0.2,0.1,0.3l-1.1,1.1h-2.3l3.3-3.3c0.1,0.1,0.2,0.1,0.3,0.1c0.3,0,0.5-0.2,0.5-0.5
						C392.6-667.4,392.4-667.6,392.1-667.6" class="st0"></path>
					<path d="M396-649.4c-0.3,0-0.5,0.2-0.5,0.5c0,0.1,0,0.2,0.1,0.3l-1.5,1.5h-5.2l0,0h-2.2l1.3-1.3h3.9
						c0,0.2,0.2,0.4,0.5,0.4s0.5-0.2,0.5-0.5s-0.2-0.5-0.5-0.5c-0.2,0-0.4,0.2-0.5,0.4h-4l-1.5,1.5h-2.3l-3,3h-3.7L366.2-633v18.8
						h0.2V-633l11-11h3.7l3-3h2.3l0,0h2.4l1.5,1.5c-0.1,0.1-0.1,0.2-0.1,0.3c0,0.3,0.2,0.5,0.5,0.5s0.5-0.2,0.5-0.5
						s-0.2-0.5-0.5-0.5c-0.1,0-0.2,0-0.3,0.1L389-647h5.1l1.6-1.6c0.1,0.1,0.2,0.1,0.3,0.1c0.3,0,0.5-0.2,0.5-0.5
						C396.5-649.2,396.2-649.4,396-649.4" class="st0"></path>
					<path d="M395.5-645.4c-0.2,0-0.4-0.2-0.4-0.4s0.2-0.4,0.4-0.4s0.4,0.2,0.4,0.4
						C395.9-645.6,395.7-645.4,395.5-645.4 M395.5-646.4c-0.3,0-0.6,0.3-0.6,0.6c0,0.1,0,0.2,0.1,0.3l-1.6,1.6h-9.5l-2.4,2.4h-6.3
						l-8.7,8.7v18.5h0.2v-18.5l8.6-8.6h6.3l2.3-2.3l1.7,1.7h3.5c0,0.2,0.2,0.4,0.5,0.4s0.5-0.2,0.5-0.5s-0.2-0.5-0.5-0.5
						c-0.2,0-0.4,0.2-0.5,0.4h-3.4l-1.5-1.5h9.3l1.5,1.5c-0.1,0.1-0.1,0.2-0.1,0.3c0,0.3,0.2,0.5,0.5,0.5s0.5-0.2,0.5-0.5
						s-0.2-0.5-0.5-0.5c-0.1,0-0.2,0-0.3,0.1l-1.4-1.4l1.6-1.6c0.1,0.1,0.2,0.1,0.3,0.1c0.3,0,0.6-0.3,0.6-0.6
						C396.1-646.2,395.8-646.4,395.5-646.4" class="st0"></path>
					<path d="M355.5-671.2c-0.2,0-0.4-0.2-0.4-0.4s0.2-0.4,0.4-0.4c0.2,0,0.4,0.2,0.4,0.4S355.7-671.2,355.5-671.2
						 M355.8-682.2c-0.3,0-0.5,0.2-0.5,0.5c0,0.2,0.2,0.4,0.4,0.5v5.2l-1.5,1.5v-3.7c0.2,0,0.4-0.2,0.4-0.5s-0.2-0.5-0.5-0.5
						s-0.5,0.2-0.5,0.5c0,0.2,0.2,0.4,0.4,0.5v10.6l1.4,1.4v5.7l1.6,1.6v6.8l3.4,3.4v34.7h0.2v-35l-3.4-3.4v-6.8l-1.5-1.5l1.2-1.2
						v-2.4c0.2,0,0.4-0.2,0.4-0.5s-0.2-0.5-0.5-0.5s-0.5,0.2-0.5,0.5c0,0.2,0.2,0.4,0.4,0.5v2.3l-1.1,1.1V-671
						c0.3,0,0.5-0.3,0.5-0.6s-0.3-0.6-0.6-0.6c-0.3,0-0.6,0.3-0.6,0.6s0.2,0.5,0.5,0.6v4.4l-1.2-1.2v-6.6l1.6-1.6v-5.2
						c0.2,0,0.4-0.2,0.4-0.5C356.3-682,356-682.2,355.8-682.2" class="st0"></path>
					<path d="M362.9-674.9c-0.2,0-0.4-0.2-0.4-0.4s0.2-0.4,0.4-0.4c0.2,0,0.4,0.2,0.4,0.4
						C363.3-675.1,363.2-674.9,362.9-674.9 M358.9-687.9c-0.3,0-0.5,0.2-0.5,0.5c0,0.2,0.2,0.4,0.4,0.5v6l-1.5,1.5v-4l-1.6-1.6
						c0.1-0.1,0.1-0.2,0.1-0.3c0-0.3-0.2-0.5-0.5-0.5s-0.5,0.2-0.5,0.5s0.2,0.5,0.5,0.5c0.1,0,0.2,0,0.3-0.1l1.5,1.5v4.1l0,0v4.3
						l0,0l0,0v5.7l1.3,1.3v7.6l1,1v7.5l1.2,1.2v36.4h0.2v-36.4l-1.2-1.2v-7.5l2.8-2.8v-2.9l-1.3-1.3v-2.8c0.2,0,0.4-0.2,0.4-0.5
						s-0.2-0.5-0.5-0.5s-0.5,0.2-0.5,0.5c0,0.2,0.2,0.4,0.4,0.5v2.8l1.3,1.3v2.7l-2.7,2.7l-0.9-0.9v-7.5l0.8-0.8v-3l3.1-3.1
						c0.1,0.1,0.2,0.1,0.3,0.1c0.3,0,0.6-0.3,0.6-0.6s-0.3-0.6-0.6-0.6c-0.3,0-0.6,0.3-0.6,0.6c0,0.1,0,0.2,0.1,0.3l-3.1,3.1v3
						l-0.8,0.8l-1.2-1.2v-5.6l3-3c0.1,0.1,0.2,0.1,0.3,0.1c0.3,0,0.5-0.2,0.5-0.5s-0.2-0.5-0.5-0.5s-0.5,0.2-0.5,0.5
						c0,0.1,0,0.2,0.1,0.3l-2.8,2.8v-4.1l1.7-1.7v-6.1c0.2,0,0.4-0.2,0.4-0.5C359.4-687.6,359.2-687.9,358.9-687.9" class="st0"></path>
					<path d="M361.8-660.1c-0.3,0-0.5,0.2-0.5,0.5s0.2,0.5,0.5,0.5c0.1,0,0.2,0,0.3-0.1l1.2,1.2v5.3l-1,1v-4.1l-1.4-1.4
						c0.1-0.1,0.1-0.2,0.1-0.3c0-0.3-0.2-0.5-0.5-0.5s-0.5,0.2-0.5,0.5s0.2,0.5,0.5,0.5c0.1,0,0.2,0,0.3-0.1l1.4,1.4v4.1l-1.4-1.4
						c0.1-0.1,0.1-0.2,0.1-0.3c0-0.3-0.2-0.5-0.5-0.5s-0.5,0.2-0.5,0.5s0.2,0.5,0.5,0.5c0.1,0,0.2,0,0.3-0.1l1.6,1.6v6.3l-1.2,1.2
						v29.5h0.2v-29.5l1.2-1.2v-3.1l0.7-0.7c0.1,0.1,0.2,0.1,0.3,0.1c0.3,0,0.5-0.2,0.5-0.5s-0.2-0.5-0.5-0.5s-0.5,0.2-0.5,0.5
						c0,0.1,0,0.2,0.1,0.3l-0.5,0.5v-2.9v-0.2l1.2-1.2v-5.5l-1.3-1.3c0.1-0.1,0.1-0.2,0.1-0.3C362.3-659.9,362.1-660.1,361.8-660.1" class="st0"></path>
					<path d="M366.6-674.2c-0.3,0-0.5,0.2-0.5,0.5c0,0.2,0.2,0.4,0.4,0.5v1.1l1.1,1.1v7.3l-1.5,1.5v-1.3l-1.7-1.7v-0.4
						l1.4-1.4v-2.7c0.2,0,0.4-0.2,0.4-0.5s-0.2-0.5-0.5-0.5s-0.5,0.2-0.5,0.5c0,0.2,0.2,0.4,0.4,0.5v2.6l-1.3,1.3v-7.4
						c0.2,0,0.4-0.2,0.4-0.5s-0.2-0.5-0.5-0.5s-0.5,0.2-0.5,0.5c0,0.2,0.2,0.4,0.4,0.5v8.1l1.7,1.7v4.1l-1,1v9.4l-1.3,1.3v3.2
						l-1.2,1.2v2.2l-1.1,1.1v25.5h0.2v-25.4l1.1-1.1v-2.2l1.2-1.2v-3.2l1.3-1.3v-9.4l1-1v-2.7l1.7-1.7v-7.4l-1.1-1.1v-1
						c0.2,0,0.4-0.2,0.4-0.5C367.1-674,366.8-674.2,366.6-674.2" class="st0"></path>
					<path d="M371.2-671.4c-0.2,0-0.4-0.2-0.4-0.4s0.2-0.4,0.4-0.4c0.2,0,0.4,0.2,0.4,0.4
						C371.6-671.5,371.4-671.4,371.2-671.4 M371.4-686.6c-0.3,0-0.5,0.2-0.5,0.5c0,0.2,0.2,0.4,0.4,0.5v5.7l-1.9-1.9v-2.2
						c0.2,0,0.4-0.2,0.4-0.5s-0.2-0.5-0.5-0.5s-0.5,0.2-0.5,0.5c0,0.2,0.2,0.4,0.4,0.5v2.3l2.1,2.1v4.4l2.4,2.4v5.5l-2.5,2.5v3.4
						l-1.1,1.1v-6.7l1.2-1.2v-2.9c0.3,0,0.5-0.3,0.5-0.6s-0.3-0.6-0.6-0.6c-0.3,0-0.6,0.3-0.6,0.6s0.2,0.5,0.5,0.6v2.8l-1.1,1.1
						l-1.3-1.3v-8.3c0.2,0,0.4-0.2,0.4-0.5s-0.2-0.5-0.5-0.5s-0.5,0.2-0.5,0.5c0,0.2,0.2,0.4,0.4,0.5v8.4l1.4,1.4v15l-2.1,2.1v8
						l-2.1,2.1v3.9l-1.9,1.9v19.8h0.2V-634l1.9-1.9v-3.9l2.1-2.1v-8l2.1-2.1v-8.1l1.3-1.3v-3.4l2.5-2.5v-5.6l0,0v-4.8l1.7-1.7
						c0.1,0.1,0.2,0.1,0.3,0.1c0.3,0,0.5-0.2,0.5-0.5s-0.2-0.5-0.5-0.5s-0.5,0.2-0.5,0.5c0,0.1,0,0.2,0.1,0.3l-1.8,1.8v4.7l-2.2-2.2
						v-10.3c0.2,0,0.4-0.2,0.4-0.5C371.9-686.4,371.6-686.6,371.4-686.6" class="st0"></path>
					<path d="M372.8-664.9c-0.3,0-0.5,0.2-0.5,0.5c0,0.2,0.2,0.4,0.4,0.5v2.8l1.6,1.6l-2.3,2.3v9l-2.6,2.6v6.6l-5.4,5.4
						v19.5h0.2v-19.4l5.4-5.4v-6.6l2.6-2.6v-4.9l1.4-1.4v-1.7c0.2,0,0.4-0.2,0.4-0.5s-0.2-0.5-0.5-0.5s-0.5,0.2-0.5,0.5
						c0,0.2,0.2,0.4,0.4,0.5v1.7l-1.2,1.2v-3.9l2.3-2.3v-2.1c0.2,0,0.4-0.2,0.4-0.5s-0.2-0.5-0.5-0.5s-0.5,0.2-0.5,0.5
						c0,0.2,0.2,0.4,0.4,0.5v1.8l-1.4-1.4v-2.7c0.2,0,0.4-0.2,0.4-0.5C373.3-664.7,373.1-664.9,372.8-664.9" class="st0"></path>
					<path d="M379.9-681.4c-0.3,0-0.5,0.2-0.5,0.5c0,0.2,0.2,0.4,0.4,0.5v6l-2.9-2.9c0.1-0.1,0.1-0.2,0.1-0.3
						c0-0.3-0.2-0.5-0.5-0.5s-0.5,0.2-0.5,0.5s0.2,0.5,0.5,0.5c0.1,0,0.2,0,0.3-0.1l3.1,3.1v3.5l-1.1,1.1l-2.5-2.5
						c0.1-0.1,0.1-0.2,0.1-0.3c0-0.3-0.2-0.5-0.5-0.5s-0.5,0.2-0.5,0.5s0.2,0.5,0.5,0.5c0.1,0,0.2,0,0.3-0.1l2.5,2.5v3.5l-2.1,2.1
						l-1.3-1.3v-2.6c0.2,0,0.4-0.2,0.4-0.5s-0.2-0.5-0.5-0.5s-0.5,0.2-0.5,0.5c0,0.2,0.2,0.4,0.4,0.5v2.6l1.4,1.4v11.4l-2.6,2.6v3.9
						l-2.4,2.4v2.5l-7.1,7.1v19.3h0.2v-19.2l7.1-7.1v-2.5l2.4-2.4v-3.9l2.6-2.6v-11.5l2.2-2.2v-3.6l1.2-1.2v-9.8
						c0.2,0,0.4-0.2,0.4-0.5C380.4-681.2,380.2-681.4,379.9-681.4" class="st0"></path>
					<path d="M377.8-659.9c-0.2,0-0.4-0.2-0.4-0.4s0.2-0.4,0.4-0.4c0.2,0,0.4,0.2,0.4,0.4
						C378.2-660,378-659.9,377.8-659.9 M390.5-669.7c-0.2,0-0.4-0.2-0.4-0.4s0.2-0.4,0.4-0.4c0.2,0,0.4,0.2,0.4,0.4
						S390.7-669.7,390.5-669.7 M382.3-678.8c-0.3,0-0.5,0.2-0.5,0.5c0,0.1,0,0.2,0.1,0.3l-1,1v13.9l-1.6,1.6v2.5l0,0v4.1l-1.5-1.5
						v-3.2c0.3,0,0.5-0.3,0.5-0.6s-0.3-0.6-0.6-0.6c-0.3,0-0.6,0.3-0.6,0.6s0.2,0.5,0.5,0.6v3.3l1.6,1.6v2.2l-4.5,4.5v4.5
						l-10.3,10.3v19h0.2v-19l10.3-10.3v-4.5l4.5-4.5v-6.6l9.1-9.1l0,0l0,0l1.5-1.5c0.1,0.1,0.2,0.1,0.3,0.1c0.3,0,0.6-0.3,0.6-0.6
						s-0.3-0.6-0.6-0.6c-0.3,0-0.6,0.3-0.6,0.6c0,0.1,0,0.2,0.1,0.3l-1.4,1.4v-4.7c0.2,0,0.4-0.2,0.4-0.5s-0.2-0.5-0.5-0.5
						s-0.5,0.2-0.5,0.5c0,0.2,0.2,0.4,0.4,0.5v4.8l-2.4,2.4v-3.7c0.2,0,0.4-0.2,0.4-0.5s-0.2-0.5-0.5-0.5s-0.5,0.2-0.5,0.5
						c0,0.2,0.2,0.4,0.4,0.5v3.9l-1.9,1.9l-1.5-1.5v-3.9c0.2,0,0.4-0.2,0.4-0.5s-0.2-0.5-0.5-0.5s-0.5,0.2-0.5,0.5
						c0,0.2,0.2,0.4,0.4,0.5v4l1.5,1.5l-4.3,4.3v-2.2l1.6-1.6v-13.9l0.9-0.9c0.1,0.1,0.2,0.1,0.3,0.1c0.3,0,0.5-0.2,0.5-0.5
						C382.8-678.5,382.6-678.8,382.3-678.8" class="st0"></path>
					<path d="M366.8-657.8c-0.2,0-0.4-0.2-0.4-0.4s0.2-0.4,0.4-0.4c0.2,0,0.4,0.2,0.4,0.4
						C367.2-658,367-657.8,366.8-657.8 M368.2-661.7c-0.3,0-0.5,0.2-0.5,0.5c0,0.2,0.2,0.4,0.4,0.5v6l-1.2-1.2v-1.7
						c0.3,0,0.5-0.3,0.5-0.6s-0.3-0.6-0.6-0.6c-0.3,0-0.6,0.3-0.6,0.6s0.2,0.5,0.5,0.6v1.8l1.4,1.4l-2.3,2.3v7.1l-2.2,2.2v6.2
						l-1.2,1.2v21.2h0.2v-21.1l1.2-1.2v-6.2l2.2-2.2v-7.1l2.4-2.4v-6.3c0.2,0,0.4-0.2,0.4-0.5C368.7-661.5,368.4-661.7,368.2-661.7" class="st0"></path>
					<path d="M368.8-657.8c-0.3,0-0.5,0.2-0.5,0.5c0,0.2,0.2,0.4,0.4,0.5v3.6l-1.8,1.8v8.3l-3.2,3.2v3.5l-1.2,1.2v20.9
						h0.2v-20.9l1.2-1.2v-3.5l3.2-3.2v-8.3l1.8-1.8v-3.7c0.2,0,0.4-0.2,0.4-0.5C369.3-657.6,369.1-657.8,368.8-657.8" class="st0"></path>
					<path d="M348-670.1c-0.2,0-0.4-0.2-0.4-0.4s0.2-0.4,0.4-0.4c0.2,0,0.4,0.2,0.4,0.4S348.2-670.1,348-670.1
						 M352-676.7c-0.3,0-0.5,0.2-0.5,0.5c0,0.2,0.2,0.4,0.4,0.5v11.9l-0.6,0.6l-3.2-3.2l1.9-1.9v-3.3c0.2,0,0.4-0.2,0.4-0.5
						s-0.2-0.5-0.5-0.5s-0.5,0.2-0.5,0.5c0,0.2,0.2,0.4,0.4,0.5v3.2l-1.7,1.7v-3.3c0.3,0,0.5-0.3,0.5-0.6s-0.3-0.6-0.6-0.6
						c-0.3,0-0.6,0.3-0.6,0.6s0.2,0.5,0.5,0.6v3.6l3.4,3.4v11.2l8.8,8.8v28.8h0.2V-643l-2.6-2.6v-2.3l0,0v-1.9
						c0.2,0,0.4-0.2,0.4-0.5s-0.2-0.5-0.5-0.5s-0.5,0.2-0.5,0.5c0,0.2,0.2,0.4,0.4,0.5v1.7l-1.5-1.5v-2.9c0.2,0,0.4-0.2,0.4-0.5
						s-0.2-0.5-0.5-0.5s-0.5,0.2-0.5,0.5c0,0.2,0.2,0.4,0.4,0.5v3l1.7,1.7v2.1l-2.2-2.2v-6l-1.8-1.8v-8.6c0.2,0,0.4-0.2,0.4-0.5
						s-0.2-0.5-0.5-0.5s-0.5,0.2-0.5,0.5c0,0.2,0.2,0.4,0.4,0.5v5.2l-0.7-0.7c0.1-0.1,0.1-0.2,0.1-0.3c0-0.3-0.2-0.5-0.5-0.5
						s-0.5,0.2-0.5,0.5s0.2,0.5,0.5,0.5c0.1,0,0.2,0,0.3-0.1l0.8,0.8v3.2l1.8,1.8v5.8l-2.2-2.2v-1.9l0.6-0.6v-0.5
						c0.2,0,0.4-0.2,0.4-0.5s-0.2-0.5-0.5-0.5s-0.5,0.2-0.5,0.5c0,0.2,0.2,0.4,0.4,0.5v0.5l-0.6,0.6v1.8l-1.2-1.2V-663l0.6-0.6v-12
						c0.2,0,0.4-0.2,0.4-0.5C352.5-676.4,352.2-676.7,352-676.7" class="st0"></path>
					<path d="M349.9-654.5c-0.2,0-0.4-0.2-0.4-0.4s0.2-0.4,0.4-0.4c0.2,0,0.4,0.2,0.4,0.4S350.2-654.5,349.9-654.5
						 M350.6-662.6c-0.3,0-0.5,0.2-0.5,0.5c0,0.2,0.2,0.4,0.4,0.5v3.3l-1.6,1.6v6.5l10.5,10.5v25.6h0.2v-25.7l-10.4-10.4l0.9-0.9
						v-3.1c0.3,0,0.5-0.3,0.5-0.6s-0.3-0.6-0.6-0.6c-0.3,0-0.6,0.3-0.6,0.6s0.2,0.5,0.5,0.6v3l-0.8,0.8v-6.1l1.6-1.6v-3.4
						c0.2,0,0.4-0.2,0.4-0.5C351.1-662.4,350.8-662.6,350.6-662.6" class="st0"></path>
					<path d="M392.4-659.1c-0.1,0-0.2,0-0.3-0.1c-0.1-0.2-0.1-0.3-0.1-0.5c0.1-0.1,0.2-0.2,0.4-0.2c0.1,0,0.2,0,0.3,0.1
						c0.1,0.2,0.1,0.3,0.1,0.5C392.7-659.2,392.6-659.1,392.4-659.1 M392.4-660.1c-0.2,0-0.4,0.1-0.5,0.3s-0.1,0.4,0,0.6l-7,7v2
						l-3.5,3.5v-2.7l2.1-2.1v-1.2c0.2,0,0.4-0.2,0.4-0.5s-0.2-0.5-0.5-0.5s-0.5,0.2-0.5,0.5c0,0.2,0.2,0.4,0.4,0.5v1.1l-2.1,2.1v2.9
						h-2.1l-13.3,13.3v19h0.2v-18.9l13.2-13.2h2.1l3.6-3.6h7.1l4.1-4.1c0.1,0.1,0.2,0.1,0.3,0.1c0.3,0,0.5-0.2,0.5-0.5
						s-0.2-0.5-0.5-0.5s-0.5,0.2-0.5,0.5c0,0.1,0,0.2,0.1,0.3l-1.8,1.8v-2.6c0.2,0,0.4-0.2,0.4-0.5s-0.2-0.5-0.5-0.5
						s-0.5,0.2-0.5,0.5c0,0.2,0.2,0.4,0.4,0.5v2.8l-2.1,2.1h-4l2.2-2.2v-1.7c0.2,0,0.4-0.2,0.4-0.5s-0.2-0.5-0.5-0.5
						s-0.5,0.2-0.5,0.5c0,0.2,0.2,0.4,0.4,0.5v1.6l-2.2,2.2h-2.8v-1.9l5-5h3.6l2-2c0.1,0.1,0.2,0.1,0.3,0.1c0.3,0,0.5-0.2,0.5-0.5
						s-0.2-0.5-0.5-0.5s-0.5,0.2-0.5,0.5c0,0.1,0,0.2,0.1,0.3l-2,2H390l1.8-1.8c0.1,0.1,0.2,0.1,0.4,0.1c0.2,0,0.4-0.1,0.5-0.3
						s0.1-0.5-0.1-0.7l0,0C392.7-660.1,392.5-660.1,392.4-660.1" class="st0"></path>
					<path d="M360.1-661.1c-0.2,0-0.4-0.2-0.4-0.4s0.2-0.4,0.4-0.4c0.2,0,0.4,0.2,0.4,0.4
						C360.5-661.2,360.3-661.1,360.1-661.1 M359.8-666.7c-0.3,0-0.5,0.2-0.5,0.5s0.2,0.5,0.5,0.5c0.1,0,0.2,0,0.3-0.1l0.9,0.9v2.3
						l-0.5,0.5c-0.1-0.1-0.2-0.1-0.3-0.1c-0.3,0-0.6,0.3-0.6,0.6s0.3,0.6,0.6,0.6c0.3,0,0.6-0.3,0.6-0.6c0-0.1,0-0.2-0.1-0.3
						l0.6-0.6v-2.5l-1-1c0.1-0.1,0.1-0.2,0.1-0.3C360.3-666.5,360.1-666.7,359.8-666.7" class="st0"></path>
					<path d="M363.2-667.2c-0.3,0-0.5,0.2-0.5,0.5c0,0.2,0.2,0.4,0.4,0.5v3.5l0.9,0.9v1.5c-0.2,0-0.4,0.2-0.4,0.5
						s0.2,0.5,0.5,0.5s0.5-0.2,0.5-0.5c0-0.2-0.2-0.4-0.4-0.5v-1.6l-0.9-0.9v-3.4c0.2,0,0.4-0.2,0.4-0.5S363.4-667.2,363.2-667.2" class="st0"></path>
					<path d="M354.4-660.3c-0.3,0-0.5,0.2-0.5,0.5s0.2,0.5,0.5,0.5c0.1,0,0.2,0,0.3-0.1l0.7,0.7v2.3
						c-0.2,0-0.4,0.2-0.4,0.5s0.2,0.5,0.5,0.5s0.5-0.2,0.5-0.5c0-0.2-0.2-0.4-0.4-0.5v-2.3l-0.8-0.8c0.1-0.1,0.1-0.2,0.1-0.3
						C354.9-660.1,354.6-660.3,354.4-660.3" class="st0"></path>
					<path d="M357.2-643.4c-0.2,0-0.4-0.2-0.4-0.4s0.2-0.4,0.4-0.4c0.2,0,0.4,0.2,0.4,0.4S357.5-643.4,357.2-643.4
						 M351.6-649.9c-0.3,0-0.5,0.2-0.5,0.5s0.2,0.5,0.5,0.5c0.1,0,0.2,0,0.3-0.1l4.9,4.9c-0.1,0.1-0.1,0.2-0.1,0.3
						c0,0.3,0.3,0.6,0.6,0.6c0.3,0,0.6-0.3,0.6-0.6s-0.3-0.6-0.6-0.6c-0.1,0-0.2,0-0.3,0.1l-4.9-4.9c0.1-0.1,0.1-0.2,0.1-0.3
						C352.1-649.7,351.9-649.9,351.6-649.9" class="st0"></path>
					<path d="M341-657.3c-0.3,0-0.5,0.2-0.5,0.5c0,0.2,0.2,0.4,0.4,0.5v1.5l2.6,2.6c-0.1,0.1-0.1,0.2-0.1,0.3
						c0,0.3,0.2,0.5,0.5,0.5s0.5-0.2,0.5-0.5s-0.2-0.5-0.5-0.5c-0.1,0-0.2,0-0.3,0.1l-2.5-2.5v-1.4c0.2,0,0.4-0.2,0.4-0.5
						C341.5-657.1,341.2-657.3,341-657.3" class="st0"></path>
					<path d="M346.2-670.3c-0.3,0-0.5,0.2-0.5,0.5c0,0.2,0.2,0.4,0.4,0.5v3.6l0.7,0.7c-0.1,0.1-0.1,0.2-0.1,0.3
						c0,0.3,0.2,0.5,0.5,0.5s0.5-0.2,0.5-0.5s-0.2-0.5-0.5-0.5c-0.1,0-0.2,0-0.3,0.1l-0.6-0.6v-3.6c0.2,0,0.4-0.2,0.4-0.5
						S346.4-670.3,346.2-670.3" class="st0"></path>
					<path d="M344.5-661c-0.2,0-0.4-0.2-0.4-0.4s0.2-0.4,0.4-0.4c0.2,0,0.4,0.2,0.4,0.4S344.8-661,344.5-661 M344.5-662
						c-0.3,0-0.6,0.3-0.6,0.6s0.2,0.5,0.5,0.6v2.7l1.5,1.5c-0.1,0.1-0.1,0.2-0.1,0.3c0,0.3,0.2,0.5,0.5,0.5s0.5-0.2,0.5-0.5
						s-0.2-0.5-0.5-0.5c-0.1,0-0.2,0-0.3,0.1l-1.4-1.4v-2.7c0.3,0,0.5-0.3,0.5-0.6C345.1-661.7,344.9-662,344.5-662" class="st0"></path>
					<path d="M373.3-651c-0.2,0-0.4-0.2-0.4-0.4s0.2-0.4,0.4-0.4c0.2,0,0.4,0.2,0.4,0.4
						C373.7-651.2,373.5-651,373.3-651 M374.8-658.4c-0.3,0-0.5,0.2-0.5,0.5c0,0.2,0.2,0.4,0.4,0.5v4.5l-1.1,1.1
						c-0.1-0.1-0.2-0.1-0.3-0.1c-0.3,0-0.6,0.3-0.6,0.6s0.3,0.6,0.6,0.6c0.3,0,0.6-0.3,0.6-0.6c0-0.1,0-0.2-0.1-0.3l1.1-1.1v-4.6
						c0.2,0,0.4-0.2,0.4-0.5C375.3-658.2,375.1-658.4,374.8-658.4" class="st0"></path>
					<path d="M383.9-675.8c-0.2,0-0.4-0.2-0.4-0.4s0.2-0.4,0.4-0.4c0.2,0,0.4,0.2,0.4,0.4
						C384.3-675.9,384.1-675.8,383.9-675.8 M383.9-676.7c-0.3,0-0.6,0.3-0.6,0.6s0.2,0.5,0.5,0.6v5.8l2-2v-1.4
						c0.2,0,0.4-0.2,0.4-0.5s-0.2-0.5-0.5-0.5s-0.5,0.2-0.5,0.5c0,0.2,0.2,0.4,0.4,0.5v1.3l-1.6,1.6v-5.4c0.3,0,0.5-0.3,0.5-0.6
						C384.5-676.5,384.2-676.7,383.9-676.7" class="st0"></path>
					<path d="M370.9-650.8c-0.3,0-0.5,0.2-0.5,0.5c0,0.1,0,0.2,0.1,0.3l-1.4,1.4c-0.1-0.1-0.2-0.1-0.3-0.1
						c-0.3,0-0.5,0.2-0.5,0.5s0.2,0.5,0.5,0.5s0.5-0.2,0.5-0.5c0-0.1,0-0.2-0.1-0.3l1.4-1.4c0.1,0.1,0.2,0.1,0.3,0.1
						c0.3,0,0.5-0.2,0.5-0.5S371.2-650.8,370.9-650.8" class="st0"></path>
					<path d="M373.6-685.3c-0.3,0-0.5,0.2-0.5,0.5c0,0.2,0.2,0.4,0.4,0.5v3.5l2.2-2.2c0.1,0.1,0.2,0.1,0.3,0.1
						c0.3,0,0.5-0.2,0.5-0.5s-0.2-0.5-0.5-0.5s-0.5,0.2-0.5,0.5c0,0.1,0,0.2,0.1,0.3l-1.8,1.8v-3.1c0.2,0,0.4-0.2,0.4-0.5
						C374.1-685.1,373.9-685.3,373.6-685.3" class="st0"></path>
					<path d="M365.4-689.7c-0.3,0-0.5,0.2-0.5,0.5c0,0.2,0.2,0.4,0.4,0.5v3.4l-2.2,2.1v-4c0.2,0,0.4-0.2,0.4-0.5
						s-0.2-0.5-0.5-0.5s-0.5,0.2-0.5,0.5c0,0.2,0.2,0.4,0.4,0.5v4.1l-1.9,1.9l-1.2-1.2v-2.2c0.2,0,0.4-0.2,0.4-0.5s-0.2-0.5-0.5-0.5
						s-0.5,0.2-0.5,0.5c0,0.2,0.2,0.4,0.4,0.5v2.2l1.4,1.4l2.1-2.1l0,0l0,0l2.3-2.3v-3.5c0.2,0,0.4-0.2,0.4-0.5
						C365.9-689.5,365.7-689.7,365.4-689.7" class="st0"></path>
					<path d="M351.4-678c-0.2,0-0.4-0.2-0.4-0.4s0.2-0.4,0.4-0.4c0.2,0,0.4,0.2,0.4,0.4S351.6-678,351.4-678
						 M353.8-683.6c-0.3,0-0.5,0.2-0.5,0.5c0,0.1,0,0.2,0.1,0.3l-2.2,2.2v1.7c-0.3,0-0.5,0.3-0.5,0.6s0.3,0.6,0.6,0.6
						c0.3,0,0.6-0.3,0.6-0.6s-0.2-0.5-0.5-0.6v-1.6l2.1-2.1c0.1,0.1,0.2,0.1,0.3,0.1c0.3,0,0.5-0.2,0.5-0.5
						C354.3-683.4,354.1-683.6,353.8-683.6" class="st0"></path>
					<path d="M367.1-683.7c-0.3,0-0.5,0.2-0.5,0.5c0,0.2,0.2,0.4,0.4,0.5v4.5l-1.9,1.9v-5.1c0.2,0,0.4-0.2,0.4-0.5
						s-0.2-0.5-0.5-0.5s-0.5,0.2-0.5,0.5c0,0.2,0.2,0.4,0.4,0.5v5.1l-1.9-1.9v-1.9c0.2,0,0.4-0.2,0.4-0.5s-0.2-0.5-0.5-0.5
						s-0.5,0.2-0.5,0.5c0,0.2,0.2,0.4,0.4,0.5v2l2.1,2.1l2.2-2.2v-4.6c0.2,0,0.4-0.2,0.4-0.5C367.6-683.5,367.4-683.7,367.1-683.7" class="st0"></path>
					<path d="M349.3-681.1c-0.3,0-0.5,0.2-0.5,0.5c0,0.2,0.2,0.4,0.4,0.5v4.6l-3.2,3.2v-0.7c0.2,0,0.4-0.2,0.4-0.5
						s-0.2-0.5-0.5-0.5s-0.5,0.2-0.5,0.5c0,0.2,0.2,0.4,0.4,0.5v1.1l3.5-3.5v-4.7c0.2,0,0.4-0.2,0.4-0.5
						C349.8-680.8,349.5-681.1,349.3-681.1" class="st0"></path>
					<path d="M346.8-646.8c-0.2,0-0.4-0.2-0.4-0.4s0.2-0.4,0.4-0.4c0.2,0,0.4,0.2,0.4,0.4
						C347.2-647,347.1-646.8,346.8-646.8 M330.7-657.7c-0.2,0-0.4-0.2-0.4-0.4s0.2-0.4,0.4-0.4c0.2,0,0.4,0.2,0.4,0.4
						S330.9-657.7,330.7-657.7 M330.7-658.7c-0.3,0-0.6,0.3-0.6,0.6s0.3,0.6,0.6,0.6c0.1,0,0.2,0,0.3-0.1l4.9,4.9h-3.4l-1.7-1.7
						c0.1-0.1,0.1-0.2,0.1-0.3c0-0.3-0.2-0.5-0.5-0.5s-0.5,0.2-0.5,0.5s0.2,0.5,0.5,0.5c0.1,0,0.2,0,0.3-0.1l1.8,1.8h1.5l-2.1,2.1
						c-0.1-0.1-0.2-0.1-0.3-0.1c-0.3,0-0.5,0.2-0.5,0.5s0.2,0.5,0.5,0.5s0.5-0.2,0.5-0.5c0-0.1,0-0.2-0.1-0.3l2.3-2.3h1.9l3.3,3.3
						h5.2l1.6,1.6c-0.1,0.1-0.1,0.2-0.1,0.3c0,0.3,0.3,0.6,0.6,0.6c0.3,0,0.6-0.3,0.6-0.6s-0.3-0.6-0.6-0.6c-0.1,0-0.3,0-0.3,0.1
						l-1.7-1.7h-5.2l-8.3-8.3c0.1-0.1,0.1-0.2,0.1-0.3C331.3-658.4,331-658.7,330.7-658.7" class="st0"></path>
					<path d="M392.2-640.3c-0.2,0-0.4-0.2-0.4-0.4s0.2-0.4,0.4-0.4c0.2,0,0.4,0.2,0.4,0.4
						C392.7-640.5,392.5-640.3,392.2-640.3 M392.2-641.3c-0.3,0-0.6,0.3-0.6,0.6c0,0.1,0,0.2,0.1,0.3l-0.7,0.7h-5.5l-0.6,0.6h-3.5
						l1.1-1.1c0.1,0.1,0.2,0.1,0.3,0.1c0.3,0,0.5-0.2,0.5-0.5s-0.2-0.5-0.5-0.5s-0.5,0.2-0.5,0.5c0,0.1,0,0.2,0.1,0.3l-1.2,1.2h-7.9
						l-6.5,6.5v18.3h0.2v-18.2l6.4-6.4h4.7l2.1,2.1h3.1l1.7,1.7c-0.1,0.1-0.1,0.2-0.1,0.3c0,0.3,0.2,0.5,0.5,0.5s0.5-0.2,0.5-0.5
						s-0.2-0.5-0.5-0.5c-0.1,0-0.2,0-0.3,0.1l-1.7-1.7h-3.1l-1.9-1.9h6.7l1.5,1.5h3.8l0.9,0.9c-0.1,0.1-0.1,0.2-0.1,0.3
						c0,0.3,0.2,0.5,0.5,0.5s0.5-0.2,0.5-0.5s-0.2-0.5-0.5-0.5c-0.1,0-0.2,0-0.3,0.1l-1-1h-3.8l-1.4-1.4l0.5-0.5h5.4l1.6,1.6h2.9
						c0,0.2,0.2,0.4,0.5,0.4s0.5-0.2,0.5-0.5s-0.2-0.5-0.5-0.5c-0.2,0-0.4,0.2-0.5,0.4h-2.8l-1.6-1.6l0.7-0.7
						c0.1,0.1,0.2,0.1,0.3,0.1c0.3,0,0.6-0.3,0.6-0.6C392.8-641.1,392.6-641.3,392.2-641.3" class="st0"></path>
					<path d="M335.7-664.8c-0.2,0-0.4,0.2-0.5,0.4h-2.6l-2.2,2.2c-0.1-0.1-0.2-0.1-0.3-0.1c-0.3,0-0.5,0.2-0.5,0.5
						s0.2,0.5,0.5,0.5s0.5-0.2,0.5-0.5c0-0.1,0-0.2-0.1-0.3l1.1-1.1v1.9c-0.2,0-0.4,0.2-0.4,0.5s0.2,0.5,0.5,0.5s0.5-0.2,0.5-0.5
						c0-0.2-0.2-0.4-0.4-0.5v-2.1l0.9-0.9h2.5c0,0.2,0.2,0.4,0.5,0.4s0.5-0.2,0.5-0.5C336.2-664.6,335.9-664.8,335.7-664.8" class="st0"></path>
					<path d="M333.9-663.1c-0.3,0-0.5,0.2-0.5,0.5c0,0.2,0.2,0.4,0.4,0.5v1l1.2,1.2c-0.1,0.1-0.1,0.2-0.1,0.3
						c0,0.3,0.2,0.5,0.5,0.5s0.5-0.2,0.5-0.5s-0.2-0.5-0.5-0.5c-0.1,0-0.2,0-0.3,0.1l-1.1-1.1v-1c0.2,0,0.4-0.2,0.4-0.5
						C334.4-662.9,334.1-663.1,333.9-663.1" class="st0"></path>
				</g>
			</g>
		</g>
	</g>
</g>
<g>
	<g>
		<path d="M480.9-716.2v35.2h-7.1v-22.9l-9.4,22.9H459l-9.5-22.9v22.9h-7.1v-35.2h8l11.2,26.2l11.2-26.2H480.9z" class="st0"></path>
		<path d="M494.9-710.5v8.8h11.8v5.6h-11.8v9.3h13.4v5.7h-20.4v-35.2h20.4v5.7h-13.4V-710.5z" class="st0"></path>
		<path d="M536.7-714.1c2.8,1.4,5,3.5,6.5,6.2s2.3,5.8,2.3,9.3s-0.8,6.6-2.3,9.3c-1.5,2.6-3.7,4.7-6.5,6.1
			c-2.8,1.4-6.1,2.2-9.8,2.2h-12.3v-35.2h12.3C530.6-716.2,533.9-715.5,536.7-714.1z M535.2-690.1c2-2,3-4.9,3-8.5
			c0-3.7-1-6.5-3-8.6s-4.9-3.1-8.6-3.1h-5v23.2h5C530.4-687,533.2-688.1,535.2-690.1z" class="st0"></path>
		<path d="M572.5-716.2v5.7h-14.7v9H569v5.6h-11.2v14.9h-7.1v-35.2H572.5z" class="st0"></path>
		<path d="M584.8-683c-2.8-1.5-4.9-3.7-6.6-6.4c-1.6-2.7-2.4-5.8-2.4-9.3c0-3.4,0.8-6.5,2.4-9.3
			c1.6-2.7,3.8-4.9,6.6-6.4s5.8-2.3,9.1-2.3s6.4,0.8,9.1,2.3c2.7,1.5,4.9,3.7,6.5,6.4s2.4,5.8,2.4,9.3s-0.8,6.6-2.4,9.3
			c-1.6,2.7-3.8,4.9-6.5,6.4c-2.8,1.5-5.8,2.3-9.1,2.3S587.5-681.5,584.8-683z M599.4-688.4c1.6-1,2.9-2.3,3.8-4.1
			c0.9-1.8,1.4-3.8,1.4-6.2s-0.5-4.4-1.4-6.2s-2.2-3.1-3.8-4.1c-1.6-0.9-3.5-1.4-5.6-1.4s-4,0.5-5.6,1.4s-2.9,2.3-3.8,4.1
			c-0.9,1.8-1.4,3.8-1.4,6.2s0.5,4.4,1.4,6.2s2.2,3.2,3.8,4.1c1.6,1,3.5,1.4,5.6,1.4S597.8-687.5,599.4-688.4z" class="st0"></path>
		<path d="M624.1-686.6h11.6v5.6H617v-35.2h7.1V-686.6L624.1-686.6z" class="st0"></path>
		<path d="M660.1-681l-12.8-15.7v15.7h-7.1v-35.2h7.1v15.8l12.8-15.8h8.5l-14.5,17.4L669-681H660.1z" class="st0"></path>
		<path d="M679.1-682c-2-0.8-3.5-2-4.7-3.6c-1.1-1.6-1.7-3.4-1.8-5.6h7.6c0.1,1.4,0.6,2.6,1.5,3.4
			c0.9,0.8,2.2,1.3,3.8,1.3s2.9-0.4,3.9-1.2c0.9-0.8,1.4-1.8,1.4-3.1c0-1-0.3-1.9-1-2.6c-0.6-0.7-1.4-1.2-2.4-1.6
			c-1-0.4-2.3-0.8-4-1.3c-2.3-0.7-4.1-1.3-5.6-2c-1.4-0.7-2.7-1.6-3.7-3c-1-1.3-1.5-3.1-1.5-5.3c0-2.1,0.5-3.9,1.6-5.4
			c1-1.5,2.5-2.7,4.4-3.6c1.9-0.8,4-1.2,6.5-1.2c3.6,0,6.6,0.9,8.8,2.6c2.3,1.8,3.5,4.2,3.8,7.4h-7.8c-0.1-1.2-0.6-2.2-1.5-3
			c-1-0.8-2.2-1.2-3.8-1.2c-1.4,0-2.5,0.4-3.3,1.1c-0.8,0.7-1.2,1.7-1.2,3.1c0,0.9,0.3,1.7,0.9,2.3c0.6,0.6,1.4,1.1,2.3,1.5
			c0.9,0.4,2.2,0.8,3.9,1.3c2.3,0.7,4.2,1.3,5.6,2c1.4,0.7,2.7,1.7,3.7,3s1.6,3.1,1.6,5.3c0,1.9-0.5,3.6-1.5,5.2
			c-1,1.6-2.4,2.9-4.3,3.9c-1.9,1-4.1,1.4-6.7,1.4C683.3-680.7,681.1-681.1,679.1-682z" class="st0"></path>
	</g>
	<g>
		<g>
			<path d="M451.9-672.4v2.2H445v4.8h5.4v2.2H445v7.1h-2.7v-16.2L451.9-672.4L451.9-672.4z" class="st0"></path>
			<path d="M460.7-668.7c0.6-0.4,1.4-0.5,2.3-0.5v2.7h-0.7c-1,0-1.8,0.3-2.4,0.8c-0.5,0.5-0.8,1.4-0.8,2.7v6.8h-2.7
				V-669h2.7v1.9C459.5-667.8,460-668.3,460.7-668.7z" class="st0"></path>
			<path d="M469.8-656.8c-1-0.6-1.7-1.3-2.3-2.3c-0.6-1-0.8-2.2-0.8-3.5s0.3-2.5,0.9-3.5s1.4-1.8,2.4-2.3
				s2.1-0.8,3.3-0.8s2.3,0.3,3.3,0.8s1.8,1.3,2.4,2.3s0.9,2.2,0.9,3.5s-0.3,2.5-0.9,3.5s-1.4,1.8-2.4,2.3c-1,0.6-2.1,0.8-3.4,0.8
				C471.8-656,470.8-656.3,469.8-656.8z M475-658.8c0.6-0.3,1.1-0.8,1.5-1.5s0.6-1.4,0.6-2.4c0-0.9-0.2-1.7-0.5-2.4
				c-0.4-0.6-0.8-1.1-1.4-1.5c-0.6-0.3-1.2-0.5-1.9-0.5s-1.3,0.2-1.9,0.5s-1,0.8-1.4,1.5c-0.3,0.6-0.5,1.4-0.5,2.4
				c0,1.4,0.4,2.4,1.1,3.2s1.6,1.1,2.7,1.1C473.7-658.3,474.4-658.5,475-658.8z" class="st0"></path>
			<path d="M502.7-668.6c0.8,0.4,1.4,1,1.9,1.9c0.5,0.8,0.7,1.8,0.7,3v7.6h-2.6v-7.2c0-1.1-0.3-2-0.9-2.6
				s-1.4-0.9-2.4-0.9s-1.8,0.3-2.4,0.9c-0.6,0.6-0.9,1.5-0.9,2.6v7.2h-2.6v-7.2c0-1.1-0.3-2-0.9-2.6s-1.4-0.9-2.4-0.9
				s-1.8,0.3-2.4,0.9c-0.6,0.6-0.9,1.5-0.9,2.6v7.2h-2.7V-669h2.7v1.5c0.4-0.5,1-0.9,1.7-1.2s1.4-0.4,2.1-0.4c1,0,1.9,0.2,2.7,0.7
				c0.8,0.4,1.4,1.1,1.9,1.9c0.4-0.8,1-1.4,1.8-1.9s1.7-0.7,2.7-0.7C501-669.3,501.9-669,502.7-668.6z" class="st0"></path>
			<path d="M521.5-672.4v16.2h-2.7v-16.2H521.5z" class="st0"></path>
			<path d="M536.2-668.6c0.8,0.4,1.4,1,1.9,1.9c0.5,0.8,0.7,1.8,0.7,3v7.6h-2.6v-7.2c0-1.1-0.3-2-0.9-2.6
				c-0.6-0.6-1.4-0.9-2.4-0.9s-1.8,0.3-2.4,0.9c-0.6,0.6-0.9,1.5-0.9,2.6v7.2H527V-669h2.7v1.5c0.4-0.5,1-0.9,1.7-1.2
				s1.4-0.4,2.2-0.4C534.5-669.3,535.4-669,536.2-668.6z" class="st0"></path>
			<path d="M549.6-666.9h-2.4v10.7h-2.7v-10.7H543v-2.2h1.5v-0.9c0-1.5,0.4-2.5,1.2-3.2s2-1,3.7-1v2.2
				c-0.8,0-1.4,0.2-1.7,0.5s-0.5,0.8-0.5,1.6v0.9h2.4L549.6-666.9L549.6-666.9z" class="st0"></path>
			<path d="M556.3-656.8c-1-0.6-1.7-1.3-2.3-2.3s-0.8-2.2-0.8-3.5s0.3-2.5,0.9-3.5c0.6-1,1.4-1.8,2.4-2.3
				s2.1-0.8,3.3-0.8s2.3,0.3,3.3,0.8s1.8,1.3,2.4,2.3c0.6,1,0.9,2.2,0.9,3.5s-0.3,2.5-0.9,3.5c-0.6,1-1.4,1.8-2.4,2.3
				c-1,0.6-2.1,0.8-3.4,0.8C558.4-656,557.3-656.3,556.3-656.8z M561.5-658.8c0.6-0.3,1.1-0.8,1.5-1.5s0.6-1.4,0.6-2.4
				c0-0.9-0.2-1.7-0.5-2.4c-0.4-0.6-0.8-1.1-1.4-1.5c-0.6-0.3-1.2-0.5-1.9-0.5s-1.3,0.2-1.9,0.5c-0.6,0.3-1,0.8-1.4,1.5
				c-0.3,0.6-0.5,1.4-0.5,2.4c0,1.4,0.4,2.4,1.1,3.2c0.7,0.8,1.6,1.1,2.7,1.1C560.3-658.3,560.9-658.5,561.5-658.8z" class="st0"></path>
			<path d="M573.6-673.4v17.2h-2.7v-17.2H573.6z" class="st0"></path>
			<path d="M584.2-662.6l5.9,6.4h-3.6l-4.8-5.5v5.5H579v-17.2h2.7v10l4.7-5.6h3.7L584.2-662.6z" class="st0"></path>
			<path d="M596.1-656.6c-0.8-0.4-1.4-0.9-1.9-1.5s-0.7-1.3-0.7-2.1h2.7c0,0.5,0.3,1,0.8,1.4s1.1,0.5,1.8,0.5
				s1.3-0.1,1.7-0.4c0.4-0.3,0.6-0.7,0.6-1.1c0-0.5-0.2-0.8-0.7-1.1c-0.5-0.2-1.2-0.5-2.2-0.8s-1.7-0.5-2.4-0.8s-1.1-0.6-1.6-1.1
				c-0.4-0.5-0.7-1.2-0.7-2c0-0.7,0.2-1.3,0.6-1.9c0.4-0.6,1-1,1.7-1.3c0.8-0.3,1.6-0.5,2.6-0.5c1.5,0,2.6,0.4,3.5,1.1
				c0.9,0.7,1.4,1.7,1.4,3h-2.7c0-0.6-0.3-1-0.7-1.4c-0.4-0.3-1-0.5-1.7-0.5s-1.2,0.1-1.6,0.4c-0.4,0.3-0.6,0.6-0.6,1
				c0,0.3,0.1,0.6,0.4,0.9s0.6,0.4,0.9,0.5c0.4,0.1,0.9,0.3,1.6,0.5c0.9,0.2,1.7,0.5,2.3,0.8s1.1,0.6,1.5,1.1s0.7,1.2,0.7,2
				c0,0.7-0.2,1.4-0.6,2c-0.4,0.6-1,1-1.7,1.4c-0.7,0.3-1.6,0.5-2.6,0.5C597.8-656,596.9-656.2,596.1-656.6z" class="st0"></path>
			<path d="M628.5-667.7c-0.4-0.8-1-1.4-1.7-1.8c-0.7-0.4-1.6-0.6-2.6-0.6c-1.1,0-2,0.2-2.9,0.7c-0.8,0.5-1.5,1.2-2,2
				c-0.5,0.9-0.7,1.9-0.7,3.1s0.2,2.2,0.7,3.1c0.5,0.9,1.1,1.6,2,2.1c0.8,0.5,1.8,0.7,2.9,0.7c1.4,0,2.6-0.4,3.5-1.2
				s1.5-1.9,1.7-3.3h-6.1v-2.1h8.9v2.1c-0.2,1.3-0.6,2.4-1.3,3.5s-1.7,1.9-2.8,2.5c-1.2,0.6-2.4,0.9-3.9,0.9s-2.9-0.4-4.2-1.1
				c-1.3-0.7-2.3-1.7-3-2.9c-0.7-1.3-1.1-2.7-1.1-4.3s0.4-3,1.1-4.3c0.7-1.3,1.7-2.2,3-2.9s2.7-1.1,4.2-1.1c1.7,0,3.3,0.4,4.6,1.3
				c1.3,0.8,2.3,2,2.9,3.6H628.5z" class="st0"></path>
			<path d="M641-668.7c0.6-0.4,1.4-0.5,2.3-0.5v2.7h-0.7c-1,0-1.8,0.3-2.4,0.8c-0.5,0.5-0.8,1.4-0.8,2.7v6.8h-2.7V-669
				h2.7v1.9C639.9-667.8,640.4-668.3,641-668.7z" class="st0"></path>
			<path d="M650.1-656.8c-1-0.6-1.7-1.3-2.3-2.3s-0.8-2.2-0.8-3.5s0.3-2.5,0.9-3.5c0.6-1,1.4-1.8,2.4-2.3
				s2.1-0.8,3.3-0.8s2.3,0.3,3.3,0.8s1.8,1.3,2.4,2.3c0.6,1,0.9,2.2,0.9,3.5s-0.3,2.5-0.9,3.5c-0.6,1-1.4,1.8-2.4,2.3
				c-1,0.6-2.1,0.8-3.4,0.8C652.2-656,651.1-656.3,650.1-656.8z M655.3-658.8c0.6-0.3,1.1-0.8,1.5-1.5s0.6-1.4,0.6-2.4
				c0-0.9-0.2-1.7-0.5-2.4c-0.4-0.6-0.8-1.1-1.4-1.5c-0.6-0.3-1.2-0.5-1.9-0.5s-1.3,0.2-1.9,0.5c-0.6,0.3-1,0.8-1.4,1.5
				c-0.3,0.6-0.5,1.4-0.5,2.4c0,1.4,0.4,2.4,1.1,3.2c0.7,0.8,1.6,1.1,2.7,1.1C654.1-658.3,654.7-658.5,655.3-658.8z" class="st0"></path>
			<path d="M676.4-669v12.8h-2.7v-1.5c-0.4,0.5-1,0.9-1.6,1.2c-0.7,0.3-1.4,0.5-2.2,0.5c-1,0-1.9-0.2-2.7-0.6
				c-0.8-0.4-1.4-1-1.9-1.9c-0.5-0.8-0.7-1.8-0.7-3v-7.5h2.6v7.1c0,1.1,0.3,2,0.9,2.6c0.6,0.6,1.4,0.9,2.4,0.9s1.8-0.3,2.4-0.9
				c0.6-0.6,0.9-1.5,0.9-2.6v-7.1H676.4z" class="st0"></path>
			<path d="M686.4-668.6c0.8-0.4,1.7-0.6,2.6-0.6c1.1,0,2.1,0.3,3.1,0.8c0.9,0.6,1.6,1.3,2.2,2.3c0.5,1,0.8,2.1,0.8,3.4
				c0,1.3-0.3,2.4-0.8,3.5c-0.5,1-1.3,1.8-2.2,2.4c-0.9,0.6-1.9,0.8-3.1,0.8c-1,0-1.8-0.2-2.6-0.6c-0.8-0.4-1.4-0.9-1.9-1.5v8h-2.7
				V-669h2.7v1.9C685-667.7,685.7-668.2,686.4-668.6z M691.9-665c-0.4-0.6-0.8-1.1-1.4-1.5c-0.6-0.3-1.2-0.5-1.9-0.5
				s-1.3,0.2-1.9,0.5c-0.6,0.3-1.1,0.8-1.4,1.5c-0.4,0.7-0.5,1.4-0.5,2.3c0,0.9,0.2,1.7,0.5,2.3c0.4,0.7,0.8,1.2,1.4,1.5
				s1.2,0.5,1.9,0.5s1.3-0.2,1.9-0.5c0.6-0.3,1.1-0.9,1.4-1.5c0.4-0.7,0.5-1.4,0.5-2.3S692.2-664.3,691.9-665z" class="st0"></path>
		</g>
	</g>
</g>
<g>
	<g>
		<g>
			<g>
				<path d="M213.8,161.4c-1.5-6.6-3.2-13.1-5.1-19.5c-1.8-6.5-3.8-12.9-6.1-19.2c-2.2-6.3-4.7-12.6-7.7-18.6
					c-1.5-3-3.2-5.9-5.1-8.7c-2-2.7-4.3-5.3-7.4-6.7c3.1,1.4,5.3,4.1,7.2,6.8c1.9,2.8,3.5,5.7,4.9,8.8c2.9,6.1,5.1,12.4,7.2,18.7
					c2.1,6.4,3.9,12.8,5.6,19.3c1.7,6.5,3.2,13,4.6,19.5L213.8,161.4z" class="st5"></path>
				<path d="M217.7,161.6c-0.4-9.5-0.6-19.1-0.3-28.6c0.1-4.8,0.4-9.5,0.8-14.3c0.4-4.7,1-9.5,2.4-14.1
					c-1.5,4.5-2.3,9.3-2.9,14c-0.6,4.7-1,9.5-1.3,14.3c-0.5,9.6-0.7,19.1-0.6,28.7L217.7,161.6z" class="st5"></path>
			</g>
			<g>
				<circle r="5.3" cy="163.9" cx="215.1" class="st5"></circle>
				<g>
					<path d="M220.8,211.5c-10.5-22.3-8.3-39.1-7.8-42.4c0.1-0.4,0.1-0.6,0.1-0.6l5.1-0.8c0,0,0.1,0.1,0.2,0.4
						C219.7,171,225.8,186.5,220.8,211.5z" class="st5"></path>
				</g>
			</g>
		</g>
		<path d="M224.7,161.4c-0.1-0.6-0.2-1.1,0-1.7c2.7-13.1,33.9-157.6,80.2-91c48.6,69.8,36.6,81,36.6,81
			s-24,27.2-113.1,29.3c-0.2,0-0.2,0.1-0.4-0.1l-0.4-3.8l-0.8-5.3l-1.1-5.1L224.7,161.4z" class="st5"></path>
		<path d="M228.3,185.9c0,0,130.1-14.9,90.3,36.3c-39.8,51.2-50.6,45-50.6,45s-20.2,4.5-42-60.1l1.1-5.7l0.7-5.2
			c0-0.1,0-0.3,0-0.4L228.3,185.9z" class="st5"></path>
		<path d="M215.1,210.3c-9.5,72.6-33.4,81.3-33.4,81.3s-10.7,8.8-66.5-37c-55-45.1,88.8-61.7,93.4-62.3
			c0.1,0,0.1,0,0.1,0l1.1,4.1l1.6,4.7l1.7,4.5L215.1,210.3L215.1,210.3z" class="st5"></path>
		<path d="M207.4,186.9c0,0-0.1,0-0.1,0c-109.2,16.3-145.7-19-145.7-19s-17.2-13,25.9-118.4
			c42.7-104.3,118.2,111.6,119.7,115.9c0,0,0,0,0,0c0,0,0,0.1,0,0.1l-0.6,3.4l-0.3,4.9l0.3,6.6L207.4,186.9z" class="st5"></path>
	</g>
	<g>
		<path d="M890.7,91.7V63.8h10.9c2.4,0,4.5,0.4,6.3,1.2c1.7,0.8,3.1,1.9,4,3.3c0.9,1.5,1.4,3.2,1.4,5.2
			c0,2-0.5,3.8-1.4,5.2c-0.9,1.4-2.3,2.6-4,3.3c-1.7,0.8-3.8,1.2-6.3,1.2h-8.7l1.8-1.8v10.3H890.7z M894.6,81.8l-1.8-2h8.6
			c2.6,0,4.5-0.6,5.8-1.7c1.3-1.1,2-2.6,2-4.6c0-2-0.7-3.5-2-4.6c-1.3-1.1-3.2-1.6-5.8-1.6h-8.6l1.8-2V81.8z M909.3,91.7l-7.1-10.1
			h4.3l7.2,10.1H909.3z" class="st5"></path>
		<path d="M927.2,77.8h-1.5c0,6.5-2.6,12.4-6.9,16.6c-4.3,4.3-10.1,6.9-16.6,6.9c-6.5,0-12.4-2.6-16.6-6.9
			c-4.3-4.3-6.9-10.1-6.9-16.6c0-6.5,2.6-12.4,6.9-16.6c4.3-4.3,10.1-6.9,16.6-6.9c6.5,0,12.4,2.6,16.6,6.9
			c4.3,4.3,6.9,10.1,6.9,16.6H927.2h1.5c0-14.6-11.9-26.5-26.5-26.5c-14.6,0-26.5,11.9-26.5,26.5c0,14.6,11.9,26.5,26.5,26.5
			c14.6,0,26.5-11.9,26.5-26.5H927.2z" class="st5"></path>
	</g>
	<g>
		<path d="M375.4,173V93.5h11.4V173H375.4z" class="st5"></path>
		<path d="M410.7,173V93.5h9.3l52.6,65.3h-4.9V93.5H479V173h-9.3l-52.6-65.3h4.9V173H410.7z" class="st5"></path>
		<path d="M514.3,173h-11.4V93.5H559v9.9h-44.8V173z M513.1,131.1h41v9.8h-41V131.1z" class="st5"></path>
		<path d="M610,173.9c-6.1,0-11.7-1-16.9-3.1c-5.2-2-9.7-4.9-13.5-8.6c-3.8-3.7-6.7-8-8.9-12.9
			c-2.1-4.9-3.2-10.3-3.2-16.1c0-5.8,1.1-11.2,3.2-16.1c2.1-4.9,5.1-9.2,8.9-12.9c3.8-3.7,8.3-6.5,13.4-8.6c5.1-2,10.8-3.1,16.9-3.1
			c6.1,0,11.6,1,16.8,3c5.1,2,9.6,4.8,13.4,8.5c3.8,3.7,6.8,8,8.9,12.9c2.1,4.9,3.1,10.3,3.1,16.2c0,5.9-1,11.3-3.1,16.2
			c-2.1,4.9-5,9.2-8.9,12.9c-3.8,3.7-8.3,6.5-13.4,8.5C621.7,172.9,616.1,173.9,610,173.9z M610,163.8c4.4,0,8.5-0.8,12.2-2.3
			c3.7-1.5,7-3.7,9.8-6.4c2.8-2.8,4.9-6,6.5-9.7c1.6-3.7,2.3-7.8,2.3-12.2c0-4.4-0.8-8.4-2.3-12.2c-1.6-3.7-3.7-6.9-6.5-9.7
			c-2.8-2.8-6-4.9-9.8-6.4c-3.7-1.5-7.8-2.3-12.2-2.3c-4.5,0-8.6,0.8-12.3,2.3c-3.7,1.5-7,3.7-9.8,6.4c-2.8,2.8-5,6-6.5,9.7
			c-1.6,3.7-2.3,7.8-2.3,12.2c0,4.4,0.8,8.4,2.3,12.2c1.6,3.7,3.7,6.9,6.5,9.7c2.8,2.8,6.1,4.9,9.8,6.4
			C601.5,163,605.6,163.8,610,163.8z" class="st5"></path>
		<path d="M669.6,173V93.5h11.4v69.6H724v9.9H669.6z" class="st5"></path>
		<path d="M737,173V93.5h11.4V173H737z M747,153.8l-0.6-13.9l45.1-46.5h13l-34.9,36.8l-6.4,7L747,153.8z M793.4,173
			l-32.6-37.9l7.6-8.4l38.3,46.4H793.4z" class="st5"></path>
		<path d="M840.2,173.9c-6.1,0-11.9-0.9-17.4-2.8c-5.5-1.9-9.9-4.3-13.1-7.2l4.2-8.9c3,2.7,6.9,4.8,11.6,6.6
			c4.7,1.7,9.6,2.6,14.7,2.6c4.6,0,8.4-0.5,11.2-1.6c2.9-1.1,5-2.5,6.4-4.4c1.4-1.9,2-4,2-6.3c0-2.7-0.9-4.9-2.7-6.6
			c-1.8-1.7-4.1-3-6.9-4c-2.8-1-6-1.9-9.4-2.7c-3.4-0.8-6.8-1.6-10.3-2.7c-3.4-1-6.6-2.3-9.4-3.9c-2.8-1.6-5.1-3.7-6.9-6.4
			c-1.7-2.7-2.6-6.2-2.6-10.4c0-4.1,1.1-7.9,3.2-11.3c2.2-3.4,5.5-6.2,10-8.3c4.5-2.1,10.2-3.1,17.2-3.1c4.6,0,9.2,0.6,13.7,1.8
			c4.5,1.2,8.5,3,11.8,5.2l-3.7,9.1c-3.4-2.3-7-3.9-10.8-4.9c-3.8-1-7.5-1.5-11-1.5c-4.5,0-8.1,0.6-11,1.7c-2.9,1.1-5,2.7-6.3,4.5
			c-1.3,1.9-2,4-2,6.4c0,2.8,0.9,5,2.7,6.7c1.8,1.7,4.1,3,6.9,4c2.8,1,6,1.9,9.4,2.7c3.4,0.8,6.8,1.7,10.3,2.7
			c3.4,1,6.6,2.3,9.4,3.9c2.8,1.6,5.1,3.7,6.9,6.4c1.7,2.7,2.6,6.1,2.6,10.2c0,4-1.1,7.7-3.3,11.2c-2.2,3.4-5.6,6.2-10.2,8.3
			C852.9,172.9,847.2,173.9,840.2,173.9z" class="st5"></path>
	</g>
	<g>
		<path d="M377.7,247.1h-4v-37.5h25.7v3.4h-21.8V247.1z M377.3,227.7h19.8v3.4h-19.8V227.7z" class="st5"></path>
		<path d="M405.9,247.1V219h3.6v7.7l-0.4-1.3c0.8-2.1,2.1-3.8,4-4.9c1.9-1.1,4.2-1.7,6.9-1.7v3.7c-0.1,0-0.3,0-0.4,0
			c-0.1,0-0.3,0-0.4,0c-3,0-5.3,0.9-7,2.7c-1.7,1.8-2.5,4.4-2.5,7.7v14.4H405.9z" class="st5"></path>
		<path d="M437.7,247.4c-2.7,0-5.2-0.6-7.3-1.8s-3.9-2.9-5.1-5.1c-1.3-2.2-1.9-4.6-1.9-7.4c0-2.8,0.6-5.3,1.9-7.5
			c1.3-2.1,2.9-3.8,5.1-5c2.1-1.2,4.6-1.8,7.3-1.8c2.8,0,5.3,0.6,7.4,1.8c2.2,1.2,3.9,2.9,5.1,5c1.2,2.1,1.8,4.6,1.8,7.5
			c0,2.8-0.6,5.3-1.8,7.4c-1.2,2.2-2.9,3.9-5.1,5.1C443,246.7,440.5,247.4,437.7,247.4z M437.7,244c2,0,3.8-0.5,5.4-1.4
			c1.6-0.9,2.8-2.2,3.7-3.9c0.9-1.7,1.4-3.6,1.4-5.8c0-2.2-0.5-4.1-1.4-5.8c-0.9-1.6-2.2-2.9-3.7-3.8c-1.6-0.9-3.4-1.4-5.4-1.4
			c-2,0-3.8,0.5-5.4,1.4c-1.6,0.9-2.8,2.2-3.8,3.8c-0.9,1.6-1.4,3.6-1.4,5.8c0,2.2,0.5,4.1,1.4,5.8c0.9,1.7,2.2,2.9,3.8,3.9
			C434,243.5,435.8,244,437.7,244z" class="st5"></path>
		<path d="M494.6,218.7c2.3,0,4.3,0.4,6,1.3c1.7,0.9,3,2.2,4,4s1.4,4,1.4,6.8v16.3h-3.8v-16c0-3-0.7-5.2-2.1-6.7
			c-1.4-1.5-3.4-2.3-6-2.3c-1.9,0-3.6,0.4-5,1.2c-1.4,0.8-2.5,2-3.3,3.5c-0.8,1.5-1.2,3.4-1.2,5.5v14.8h-3.8v-16
			c0-3-0.7-5.2-2.1-6.7c-1.4-1.5-3.4-2.3-6-2.3c-1.9,0-3.6,0.4-5,1.2c-1.4,0.8-2.5,2-3.3,3.5c-0.8,1.5-1.2,3.4-1.2,5.5v14.8h-3.8
			V219h3.6v7.6l-0.6-1.3c0.9-2,2.2-3.6,4.2-4.8c1.9-1.2,4.2-1.7,6.8-1.7c2.8,0,5.1,0.7,7,2.1c1.9,1.4,3.2,3.4,3.8,6.2l-1.5-0.6
			c0.8-2.3,2.3-4.1,4.4-5.5C489.2,219.4,491.7,218.7,494.6,218.7z" class="st5"></path>
		<path d="M530.3,247.1v-37.5h4v37.5H530.3z" class="st5"></path>
		<path d="M559.6,218.7c2.3,0,4.3,0.4,6,1.3c1.7,0.9,3.1,2.2,4.1,4c1,1.8,1.5,4,1.5,6.8v16.3h-3.8v-16
			c0-3-0.7-5.2-2.2-6.7c-1.5-1.5-3.6-2.3-6.2-2.3c-2,0-3.7,0.4-5.2,1.2c-1.5,0.8-2.6,2-3.4,3.5c-0.8,1.5-1.2,3.4-1.2,5.5v14.8h-3.8
			V219h3.6v7.7l-0.6-1.4c0.9-2,2.3-3.6,4.3-4.8C554.6,219.3,556.9,218.7,559.6,218.7z" class="st5"></path>
		<path d="M576.7,222.1V219h17.4v3.2H576.7z M581.7,247.1v-31.7c0-2.5,0.7-4.5,2.2-6.1c1.5-1.5,3.6-2.3,6.3-2.3
			c1.1,0,2.1,0.1,3.1,0.4c1,0.3,1.8,0.7,2.5,1.3l-1.3,2.8c-0.5-0.5-1.2-0.8-1.9-1c-0.7-0.2-1.5-0.3-2.3-0.3c-1.6,0-2.8,0.4-3.7,1.3
			c-0.9,0.9-1.3,2.2-1.3,4v4.3l0.1,1.8v25.5H581.7z" class="st5"></path>
		<path d="M609.8,247.4c-2.7,0-5.2-0.6-7.3-1.8c-2.2-1.2-3.9-2.9-5.1-5.1c-1.3-2.2-1.9-4.6-1.9-7.4
			c0-2.8,0.6-5.3,1.9-7.5c1.3-2.1,2.9-3.8,5.1-5c2.1-1.2,4.6-1.8,7.3-1.8c2.8,0,5.3,0.6,7.4,1.8c2.2,1.2,3.9,2.9,5.1,5
			c1.2,2.1,1.8,4.6,1.8,7.5c0,2.8-0.6,5.3-1.8,7.4c-1.2,2.2-2.9,3.9-5.1,5.1C615,246.7,612.6,247.4,609.8,247.4z M609.8,244
			c2,0,3.8-0.5,5.4-1.4c1.6-0.9,2.8-2.2,3.7-3.9c0.9-1.7,1.4-3.6,1.4-5.8c0-2.2-0.5-4.1-1.4-5.8c-0.9-1.6-2.2-2.9-3.7-3.8
			c-1.6-0.9-3.4-1.4-5.4-1.4c-2,0-3.8,0.5-5.4,1.4c-1.6,0.9-2.8,2.2-3.8,3.8c-0.9,1.6-1.4,3.6-1.4,5.8c0,2.2,0.5,4.1,1.4,5.8
			c0.9,1.7,2.2,2.9,3.8,3.9C606.1,243.5,607.8,244,609.8,244z" class="st5"></path>
		<path d="M631.5,247.1v-39.8h3.8v39.8H631.5z" class="st5"></path>
		<path d="M645.5,247.1v-39.8h3.8v39.8H645.5z M648.5,239.8l0.1-4.9l17.5-16h4.7l-12.4,11.8l-2.1,1.8L648.5,239.8z
			 M667.3,247.1l-11.7-14.6l2.5-2.9l13.9,17.6H667.3z" class="st5"></path>
		<path d="M684,247.4c-2.3,0-4.5-0.3-6.6-1c-2.1-0.7-3.7-1.5-4.9-2.5l1.7-3c1.1,0.9,2.6,1.6,4.4,2.2
			c1.8,0.6,3.7,0.9,5.6,0.9c2.7,0,4.6-0.4,5.8-1.3c1.2-0.8,1.8-2,1.8-3.4c0-1-0.3-1.8-1-2.4c-0.7-0.6-1.5-1-2.6-1.3
			c-1.1-0.3-2.3-0.6-3.6-0.8c-1.3-0.2-2.6-0.5-3.9-0.8c-1.3-0.3-2.5-0.7-3.6-1.3c-1.1-0.6-1.9-1.3-2.6-2.3c-0.7-1-1-2.3-1-3.9
			c0-1.5,0.4-2.9,1.3-4.1c0.9-1.2,2.1-2.2,3.8-2.9c1.7-0.7,3.7-1,6.1-1c1.8,0,3.6,0.2,5.5,0.7c1.8,0.5,3.3,1.1,4.5,1.9l-1.7,3.1
			c-1.3-0.9-2.6-1.5-4-1.8c-1.4-0.4-2.9-0.6-4.3-0.6c-2.5,0-4.4,0.4-5.6,1.3c-1.2,0.9-1.8,2-1.8,3.4c0,1.1,0.3,1.9,1,2.5
			c0.7,0.6,1.5,1.1,2.6,1.4c1.1,0.3,2.3,0.6,3.6,0.8c1.3,0.2,2.6,0.5,3.9,0.8c1.3,0.3,2.5,0.7,3.6,1.2c1.1,0.5,2,1.3,2.6,2.2
			c0.7,0.9,1,2.2,1,3.7c0,1.6-0.5,3.1-1.4,4.3c-0.9,1.2-2.2,2.1-4,2.8C688.6,247,686.5,247.4,684,247.4z" class="st5"></path>
		<path d="M733,247.4c-2.9,0-5.5-0.5-7.9-1.4c-2.4-0.9-4.5-2.3-6.3-4c-1.8-1.7-3.1-3.7-4.1-6.1c-1-2.3-1.5-4.9-1.5-7.6
			c0-2.8,0.5-5.3,1.5-7.6c1-2.3,2.4-4.3,4.2-6.1c1.8-1.7,3.9-3,6.3-4c2.4-0.9,5-1.4,7.9-1.4c2.9,0,5.5,0.4,7.9,1.3
			c2.4,0.9,4.4,2.3,6.1,4.1l-2.5,2.5c-1.6-1.6-3.3-2.7-5.2-3.4c-1.9-0.7-3.9-1-6.1-1c-2.3,0-4.5,0.4-6.4,1.2s-3.6,1.9-5.1,3.3
			c-1.4,1.4-2.6,3.1-3.4,4.9c-0.8,1.9-1.2,3.9-1.2,6.2c0,2.2,0.4,4.3,1.2,6.2c0.8,1.9,1.9,3.5,3.4,5c1.4,1.4,3.1,2.5,5.1,3.3
			c1.9,0.8,4.1,1.2,6.4,1.2c2.1,0,4.2-0.3,6.1-1c1.9-0.6,3.7-1.7,5.3-3.3l2.3,3c-1.8,1.6-3.9,2.8-6.3,3.6
			C738.2,247,735.6,247.4,733,247.4z M743,242.2v-13.8h3.8v14.3L743,242.2z" class="st5"></path>
		<path d="M756.8,247.1V219h3.6v7.7l-0.4-1.3c0.8-2.1,2.1-3.8,4-4.9c1.9-1.1,4.2-1.7,6.9-1.7v3.7c-0.1,0-0.3,0-0.4,0
			c-0.1,0-0.3,0-0.4,0c-3,0-5.3,0.9-7,2.7c-1.7,1.8-2.5,4.4-2.5,7.7v14.4H756.8z" class="st5"></path>
		<path d="M788.6,247.4c-2.7,0-5.2-0.6-7.3-1.8s-3.9-2.9-5.1-5.1c-1.3-2.2-1.9-4.6-1.9-7.4c0-2.8,0.6-5.3,1.9-7.5
			c1.3-2.1,2.9-3.8,5.1-5c2.1-1.2,4.6-1.8,7.3-1.8c2.8,0,5.3,0.6,7.4,1.8c2.2,1.2,3.9,2.9,5.1,5c1.2,2.1,1.8,4.6,1.8,7.5
			c0,2.8-0.6,5.3-1.8,7.4c-1.2,2.2-2.9,3.9-5.1,5.1C793.8,246.7,791.4,247.4,788.6,247.4z M788.6,244c2,0,3.8-0.5,5.4-1.4
			c1.6-0.9,2.8-2.2,3.7-3.9c0.9-1.7,1.4-3.6,1.4-5.8c0-2.2-0.5-4.1-1.4-5.8c-0.9-1.6-2.2-2.9-3.7-3.8c-1.6-0.9-3.4-1.4-5.4-1.4
			c-2,0-3.8,0.5-5.4,1.4c-1.6,0.9-2.8,2.2-3.8,3.8c-0.9,1.6-1.4,3.6-1.4,5.8c0,2.2,0.5,4.1,1.4,5.8c0.9,1.7,2.2,2.9,3.8,3.9
			C784.9,243.5,786.7,244,788.6,244z" class="st5"></path>
		<path d="M822,247.4c-2.4,0-4.5-0.4-6.3-1.3c-1.8-0.9-3.2-2.2-4.2-4c-1-1.8-1.5-4-1.5-6.7V219h3.8v15.9
			c0,3,0.7,5.3,2.2,6.8c1.5,1.5,3.6,2.3,6.2,2.3c2,0,3.7-0.4,5.1-1.2c1.4-0.8,2.6-2,3.3-3.5c0.8-1.5,1.2-3.4,1.2-5.5V219h3.8v28.1
			h-3.6v-7.7l0.6,1.4c-0.9,2.1-2.3,3.7-4.2,4.9C826.7,246.8,824.5,247.4,822,247.4z" class="st5"></path>
		<path d="M845.9,257.5V219h3.6v8.5l-0.4,5.6l0.5,5.7v18.8H845.9z M860.5,247.4c-2.4,0-4.6-0.6-6.6-1.7
			c-2-1.1-3.5-2.8-4.7-4.9c-1.2-2.1-1.7-4.7-1.7-7.8c0-3.1,0.6-5.7,1.7-7.8c1.1-2.1,2.7-3.7,4.7-4.9c2-1.1,4.2-1.7,6.6-1.7
			c2.7,0,5.1,0.6,7.2,1.8c2.1,1.2,3.8,2.9,5,5c1.2,2.2,1.8,4.7,1.8,7.5c0,2.9-0.6,5.4-1.8,7.5c-1.2,2.1-2.9,3.8-5,5
			C865.5,246.8,863.1,247.4,860.5,247.4z M860.2,244c2,0,3.8-0.5,5.4-1.4c1.6-0.9,2.8-2.2,3.8-3.9c0.9-1.7,1.4-3.6,1.4-5.8
			c0-2.2-0.5-4.1-1.4-5.7c-0.9-1.6-2.2-2.9-3.8-3.9c-1.6-0.9-3.4-1.4-5.4-1.4s-3.8,0.5-5.4,1.4c-1.6,0.9-2.8,2.2-3.8,3.9
			c-0.9,1.6-1.4,3.6-1.4,5.7c0,2.2,0.5,4.1,1.4,5.8c0.9,1.7,2.2,2.9,3.8,3.9C856.4,243.5,858.2,244,860.2,244z" class="st5"></path>
	</g>
</g>
</svg>
