<svg width="800" height="200" viewBox="0 0 800 200" xmlns="http://www.w3.org/2000/svg">
  <style>
    .line-black {
      fill: none;
      stroke: #000;
      stroke-width: 6;
    }
    .line-blue {
      fill: none;
      stroke: #2563FF;
      stroke-width: 6;
    }
  </style>

  <!-- S -->
  <g transform="translate(20,20)">
    <path class="line-black" d="M80,20 C40,20 40,60 80,60 C120,60 120,100 80,100 C40,100 40,140 80,140" />
    <path class="line-black" stroke-width="3" d="M75,20 C35,20 35,60 75,60 C115,60 115,100 75,100 C35,100 35,140 75,140" />
  </g>

  <!-- H -->
  <g transform="translate(170,20)">
    <line class="line-black" x1="0" y1="20" x2="0" y2="140" />
    <line class="line-black" x1="40" y1="20" x2="40" y2="140" />
    <line class="line-black" x1="-5" y1="80" x2="45" y2="80" stroke-width="4" />
  </g>

  <!-- A -->
  <g transform="translate(320,20)">
    <polygon class="line-blue" points="40,20 0,140 80,140" />
    <line class="line-blue" x1="20" y1="90" x2="60" y2="90" />
  </g>

  <!-- N -->
  <g transform="translate(470,20)">
    <line class="line-blue" x1="0" y1="20" x2="0" y2="140" />
    <line class="line-blue" x1="80" y1="20" x2="80" y2="140" />
    <line class="line-blue" x1="0" y1="20" x2="80" y2="140" />
  </g>

  <!-- U -->
  <g transform="translate(620,20)">
    <path class="line-blue" d="M0,20 L0,120 C0,140 20,140 40,140 C60,140 80,140 80,120 L80,20" />
  </g>
</svg>
